<svg width="74" height="55" viewBox="0 0 74 55" xmlns="http://www.w3.org/2000/svg">
    <path d="M26.7109 44.5234C28.2148 42.3815 29.3542 40.0117 30.1289 37.4141C30.9036 34.8164 31.291 32.1276 31.291 29.3477C31.291 28.4362 31.2454 27.5475 31.1543 26.6816C31.1087 25.8158 30.9948 24.9499 30.8125 24.084C30.1745 20.8939 29.263 18.1139 28.0781 15.7441C26.9388 13.3288 25.7311 11.3236 24.4551 9.72852C23.179 8.08789 21.9714 6.85742 20.832 6.03711C19.6927 5.17122 18.8496 4.69271 18.3027 4.60156C18.1204 5.10286 17.8242 5.46745 17.4141 5.69531C17.0951 5.8776 16.776 5.96875 16.457 5.96875C16.1836 5.96875 15.9102 5.92318 15.6367 5.83203C15.3633 5.74089 15.0443 5.62695 14.6797 5.49023C14.4974 5.58138 14.224 5.62695 13.8594 5.62695C13.2214 5.62695 12.7428 5.39909 12.4238 4.94336C11.6491 5.44466 10.9199 6.19661 10.2363 7.19922C9.37044 8.38411 8.5957 9.84245 7.91211 11.5742C7.22852 13.2604 6.63607 15.1061 6.13477 17.1113C5.67904 19.071 5.31445 21.099 5.04102 23.1953C4.76758 25.2917 4.63086 27.3424 4.63086 29.3477C4.63086 30.487 4.65365 31.5807 4.69922 32.6289C4.79036 33.6771 4.94987 34.6797 5.17773 35.6367C5.63346 38.1888 6.4082 40.3307 7.50195 42.0625C8.5957 43.7943 9.80339 45.207 11.125 46.3008C12.4922 47.349 13.9049 48.1009 15.3633 48.5566C16.8672 49.0124 18.2572 49.2402 19.5332 49.2402C19.8066 49.2402 20.0573 49.2402 20.2852 49.2402C20.5586 49.2402 20.832 49.1947 21.1055 49.1035C21.7435 49.0124 22.5638 48.625 23.5664 47.9414C24.569 47.2122 25.6172 46.0729 26.7109 44.5234ZM17.9609 0.705078C19.1003 0.705078 20.4674 1.20638 22.0625 2.20898C23.6576 3.21159 25.2526 4.69271 26.8477 6.65234C28.4883 8.56641 30.015 10.9362 31.4277 13.7617C32.8405 16.5417 33.8887 19.7318 34.5723 23.332C34.9368 25.4284 35.1191 27.4336 35.1191 29.3477C35.1191 32.4922 34.6634 35.5684 33.752 38.5762C32.8861 41.5384 31.5872 44.25 29.8555 46.7109C28.625 48.4427 27.2806 49.8555 25.8223 50.9492C24.4095 52.043 23.0195 52.7038 21.6523 52.9316C21.2878 53.0228 20.9004 53.0684 20.4902 53.0684C20.1257 53.0684 19.7383 53.0684 19.3281 53.0684C17.4596 53.0684 15.5684 52.7266 13.6543 52.043C11.7402 51.3594 9.96289 50.334 8.32227 48.9668C6.68164 47.554 5.24609 45.8223 4.01562 43.7715C2.83073 41.6751 1.96484 39.2142 1.41797 36.3887C1.00781 34.2923 0.802734 31.9681 0.802734 29.416C0.802734 27.2285 0.939453 24.9727 1.21289 22.6484C1.5319 20.3242 1.96484 18.0911 2.51172 15.9492C3.05859 13.7617 3.7194 11.7337 4.49414 9.86523C5.26888 7.99674 6.13477 6.37891 7.0918 5.01172C8.77799 2.55078 10.7148 1.13802 12.9023 0.773438C13.0391 0.727865 13.1758 0.705078 13.3125 0.705078C13.4948 0.705078 13.6543 0.705078 13.791 0.705078C14.5658 0.705078 15.2266 0.841797 15.7734 1.11523C16.0469 1.02409 16.3203 0.955729 16.5938 0.910156C16.8672 0.864583 17.1634 0.81901 17.4824 0.773438L17.9609 0.705078ZM72.2383 30.2363C73.2409 30.4642 73.7422 31.2161 73.7422 32.4922C73.5143 33.4948 72.7624 33.9961 71.4863 33.9961C71.4408 33.9961 71.2129 33.9505 70.8027 33.8594C70.3926 33.7682 69.8001 33.6771 69.0254 33.5859C69.1621 35.5456 69.3216 37.6191 69.5039 39.8066C69.7318 41.9486 69.9368 43.931 70.1191 45.7539C70.3014 47.5312 70.4609 49.0352 70.5977 50.2656C70.7344 51.4961 70.8027 52.1569 70.8027 52.248C70.8027 52.7493 70.6432 53.1595 70.3242 53.4785C70.0052 53.8431 69.5267 54.071 68.8887 54.1621C68.3874 54.1621 67.9544 54.0026 67.5898 53.6836C67.2708 53.3646 67.0885 52.9544 67.043 52.4531C67.043 52.3164 66.9746 51.61 66.8379 50.334C66.7012 49.0124 66.5189 47.4173 66.291 45.5488C66.1087 43.6803 65.9036 41.6523 65.6758 39.4648C65.4935 37.2773 65.3112 35.2038 65.1289 33.2441C64.3542 33.1986 63.5339 33.153 62.668 33.1074C61.8021 33.0618 60.8678 33.0391 59.8652 33.0391C58.0879 33.0391 56.265 33.1074 54.3965 33.2441C52.528 33.3809 50.7962 33.5404 49.2012 33.7227C47.6517 33.8594 46.3529 33.9961 45.3047 34.1328C44.2565 34.2695 43.6641 34.3379 43.5273 34.3379C42.9805 34.3379 42.5247 34.1556 42.1602 33.791C41.7956 33.4264 41.6133 32.9707 41.6133 32.4238C41.6133 31.0111 41.5449 29.2337 41.4082 27.0918C41.3171 24.9499 41.1803 22.7624 40.998 20.5293C40.8158 18.2507 40.6107 16.0859 40.3828 14.0352C40.1549 11.9844 39.9271 10.3438 39.6992 9.11328C39.6992 8.11068 40.3372 7.47266 41.6133 7.19922C42.069 7.19922 42.4564 7.35872 42.7754 7.67773C43.14 7.95117 43.3678 8.31576 43.459 8.77148C43.6868 9.86523 43.8919 11.3236 44.0742 13.1465C44.3021 14.9694 44.4844 16.9062 44.6211 18.957C44.8034 20.9622 44.9629 22.9674 45.0996 24.9727C45.2363 26.9779 45.3275 28.7552 45.373 30.3047C46.1478 30.2135 47.082 30.0996 48.1758 29.9629C49.2695 29.8262 50.4544 29.7122 51.7305 29.6211C53.0521 29.4844 54.3965 29.3932 55.7637 29.3477C57.1764 29.2565 58.5436 29.2109 59.8652 29.2109C61.7337 29.2109 63.3971 29.2793 64.8555 29.416C64.8099 28.778 64.7871 28.2083 64.7871 27.707C64.7871 27.2057 64.7871 26.7728 64.7871 26.4082C64.7871 24.9954 64.7188 23.2181 64.582 21.0762C64.4909 18.9342 64.3542 16.7467 64.1719 14.5137C63.9896 12.235 63.7845 10.0703 63.5566 8.01953C63.3288 5.96875 63.1009 4.32812 62.873 3.09766C62.873 2.64193 63.0326 2.23177 63.3516 1.86719C63.6706 1.5026 64.1491 1.27474 64.7871 1.18359C65.2428 1.18359 65.6302 1.32031 65.9492 1.59375C66.3138 1.86719 66.5417 2.23177 66.6328 2.6875C66.9062 3.96354 67.1569 5.67253 67.3848 7.81445C67.6126 9.91081 67.8177 12.1211 68 14.4453C68.1823 16.7695 68.319 19.0254 68.4102 21.2129C68.5469 23.3548 68.6152 25.0866 68.6152 26.4082C68.6152 26.7728 68.6152 27.2513 68.6152 27.8438C68.6608 28.3906 68.7064 29.0059 68.752 29.6895C69.8001 29.8262 70.6204 29.9629 71.2129 30.0996C71.8053 30.1908 72.1471 30.2363 72.2383 30.2363Z" />
</svg>