<svg width="76" height="55" viewBox="0 0 76 55" xmlns="http://www.w3.org/2000/svg">
<path d="M26.7109 44.5234C28.2148 42.3815 29.3542 40.0117 30.1289 37.4141C30.9036 34.8164 31.291 32.1276 31.291 29.3477C31.291 28.4362 31.2454 27.5475 31.1543 26.6816C31.1087 25.8158 30.9948 24.9499 30.8125 24.084C30.1745 20.8939 29.263 18.1139 28.0781 15.7441C26.9388 13.3288 25.7311 11.3236 24.4551 9.72852C23.179 8.08789 21.9714 6.85742 20.832 6.03711C19.6927 5.17122 18.8496 4.69271 18.3027 4.60156C18.1204 5.10286 17.8242 5.46745 17.4141 5.69531C17.0951 5.8776 16.776 5.96875 16.457 5.96875C16.1836 5.96875 15.9102 5.92318 15.6367 5.83203C15.3633 5.74089 15.0443 5.62695 14.6797 5.49023C14.4974 5.58138 14.224 5.62695 13.8594 5.62695C13.2214 5.62695 12.7428 5.39909 12.4238 4.94336C11.6491 5.44466 10.9199 6.19661 10.2363 7.19922C9.37044 8.38411 8.5957 9.84245 7.91211 11.5742C7.22852 13.2604 6.63607 15.1061 6.13477 17.1113C5.67904 19.071 5.31445 21.099 5.04102 23.1953C4.76758 25.2917 4.63086 27.3424 4.63086 29.3477C4.63086 30.487 4.65365 31.5807 4.69922 32.6289C4.79036 33.6771 4.94987 34.6797 5.17773 35.6367C5.63346 38.1888 6.4082 40.3307 7.50195 42.0625C8.5957 43.7943 9.80339 45.207 11.125 46.3008C12.4922 47.349 13.9049 48.1009 15.3633 48.5566C16.8672 49.0124 18.2572 49.2402 19.5332 49.2402C19.8066 49.2402 20.0573 49.2402 20.2852 49.2402C20.5586 49.2402 20.832 49.1947 21.1055 49.1035C21.7435 49.0124 22.5638 48.625 23.5664 47.9414C24.569 47.2122 25.6172 46.0729 26.7109 44.5234ZM17.9609 0.705078C19.1003 0.705078 20.4674 1.20638 22.0625 2.20898C23.6576 3.21159 25.2526 4.69271 26.8477 6.65234C28.4883 8.56641 30.015 10.9362 31.4277 13.7617C32.8405 16.5417 33.8887 19.7318 34.5723 23.332C34.9368 25.4284 35.1191 27.4336 35.1191 29.3477C35.1191 32.4922 34.6634 35.5684 33.752 38.5762C32.8861 41.5384 31.5872 44.25 29.8555 46.7109C28.625 48.4427 27.2806 49.8555 25.8223 50.9492C24.4095 52.043 23.0195 52.7038 21.6523 52.9316C21.2878 53.0228 20.9004 53.0684 20.4902 53.0684C20.1257 53.0684 19.7383 53.0684 19.3281 53.0684C17.4596 53.0684 15.5684 52.7266 13.6543 52.043C11.7402 51.3594 9.96289 50.334 8.32227 48.9668C6.68164 47.554 5.24609 45.8223 4.01562 43.7715C2.83073 41.6751 1.96484 39.2142 1.41797 36.3887C1.00781 34.2923 0.802734 31.9681 0.802734 29.416C0.802734 27.2285 0.939453 24.9727 1.21289 22.6484C1.5319 20.3242 1.96484 18.0911 2.51172 15.9492C3.05859 13.7617 3.7194 11.7337 4.49414 9.86523C5.26888 7.99674 6.13477 6.37891 7.0918 5.01172C8.77799 2.55078 10.7148 1.13802 12.9023 0.773438C13.0391 0.727865 13.1758 0.705078 13.3125 0.705078C13.4948 0.705078 13.6543 0.705078 13.791 0.705078C14.5658 0.705078 15.2266 0.841797 15.7734 1.11523C16.0469 1.02409 16.3203 0.955729 16.5938 0.910156C16.8672 0.864583 17.1634 0.81901 17.4824 0.773438L17.9609 0.705078ZM58.7031 19.1621C60.1615 19.39 61.4831 19.7546 62.668 20.2559C63.8984 20.7116 65.015 21.2585 66.0176 21.8965C67.0202 22.4889 67.9089 23.127 68.6836 23.8105C69.5039 24.4941 70.2103 25.1777 70.8027 25.8613C72.6257 27.8665 73.9245 29.9401 74.6992 32.082C75.5195 34.224 75.9297 36.0241 75.9297 37.4824V38.3027L75.793 39.3281C75.6562 40.513 75.474 41.7891 75.2461 43.1562C75.0182 44.4779 74.5169 45.7767 73.7422 47.0527C72.9674 48.3288 71.8281 49.5365 70.3242 50.6758C68.8659 51.7695 66.8379 52.681 64.2402 53.4102C62.9186 53.7747 61.7109 54.0254 60.6172 54.1621C59.569 54.3444 58.5892 54.4355 57.6777 54.4355C56.265 54.4355 54.8522 54.276 53.4395 53.957C52.0723 53.638 50.4316 53.2279 48.5176 52.7266C46.7402 52.2708 45.2135 51.5417 43.9375 50.5391C42.707 49.5365 41.7044 48.5111 40.9297 47.4629C40.1549 46.4147 39.5853 45.4577 39.2207 44.5918C38.8561 43.6803 38.651 43.1107 38.6055 42.8828C38.6055 42.4727 38.7422 42.1081 39.0156 41.7891C39.2891 41.4701 39.7904 41.1966 40.5195 40.9688C40.9297 40.9688 41.2943 41.0827 41.6133 41.3105C41.9779 41.5384 42.2285 41.8574 42.3652 42.2676C42.7754 43.3158 43.3223 44.2728 44.0059 45.1387C44.5983 45.9134 45.3503 46.6882 46.2617 47.4629C47.2188 48.1921 48.3581 48.7389 49.6797 49.1035C51.457 49.6048 52.9382 49.9922 54.123 50.2656C55.3079 50.4935 56.4928 50.6074 57.6777 50.6074C59.1816 50.6074 61.0273 50.3112 63.2148 49.7188C65.1745 49.1719 66.7012 48.5111 67.7949 47.7363C68.9342 46.9616 69.7773 46.1185 70.3242 45.207C70.9167 44.25 71.304 43.2474 71.4863 42.1992C71.6686 41.1055 71.8281 40.0117 71.9648 38.918L72.1016 37.4824C72.1016 36.4798 71.7826 35.1354 71.1445 33.4492C70.5065 31.763 69.4355 30.0996 67.9316 28.459C67.3392 27.7754 66.6328 27.0918 65.8125 26.4082C65.0378 25.7246 64.1035 25.1094 63.0098 24.5625C61.9616 24.0156 60.7767 23.5827 59.4551 23.2637C58.1335 22.8991 56.6523 22.7168 55.0117 22.7168C54.9206 22.7168 54.8066 22.694 54.6699 22.6484C54.5332 22.6029 54.2826 22.4889 53.918 22.3066L53.3711 21.8281C53.3711 21.7826 53.3483 21.737 53.3027 21.6914C53.3027 21.6003 53.2572 21.418 53.166 21.1445C53.1204 21.099 53.0977 21.0534 53.0977 21.0078C53.0977 20.9167 53.1204 20.7116 53.166 20.3926C53.166 20.347 53.166 20.3014 53.166 20.2559C53.2116 20.1647 53.3255 19.9596 53.5078 19.6406C54.1458 18.7747 54.875 17.7949 55.6953 16.7012C56.5612 15.6074 57.4727 14.4681 58.4297 13.2832C59.5234 11.9616 60.6172 10.6172 61.7109 9.25C62.8047 7.83724 63.7617 6.5612 64.582 5.42188C63.625 5.33073 62.5085 5.26237 61.2324 5.2168C60.002 5.12565 58.6348 5.08008 57.1309 5.08008C55.3535 5.08008 53.5306 5.14844 51.6621 5.28516C49.7936 5.42188 48.0618 5.55859 46.4668 5.69531C44.9173 5.83203 43.6185 5.96875 42.5703 6.10547C41.5677 6.24219 41.0208 6.31055 40.9297 6.31055C40.4284 6.31055 39.9954 6.15104 39.6309 5.83203C39.3118 5.51302 39.1068 5.03451 39.0156 4.39648C39.0156 3.89518 39.1523 3.48503 39.4258 3.16602C39.7448 2.84701 40.1549 2.64193 40.6562 2.55078C40.7474 2.55078 41.2943 2.48242 42.2969 2.3457C43.3451 2.20898 44.6439 2.07227 46.1934 1.93555C47.7884 1.75326 49.543 1.59375 51.457 1.45703C53.3711 1.32031 55.2624 1.25195 57.1309 1.25195C59.3639 1.25195 61.3236 1.32031 63.0098 1.45703C64.7415 1.59375 66.1315 1.73047 67.1797 1.86719C67.4531 1.63932 67.8177 1.52539 68.2734 1.52539C68.5469 1.52539 68.8659 1.59375 69.2305 1.73047C69.3216 1.82161 69.4128 1.91276 69.5039 2.00391C69.6406 2.09505 69.7546 2.20898 69.8457 2.3457C70.6204 2.66471 71.0078 3.37109 71.0078 4.46484C70.7799 5.46745 70.0736 5.96875 68.8887 5.96875C68.0684 7.19922 66.9746 8.68034 65.6074 10.4121C64.2858 12.1439 62.8958 13.8984 61.4375 15.6758C60.9362 16.3138 60.4577 16.929 60.002 17.5215C59.5462 18.0684 59.1133 18.6152 58.7031 19.1621Z" />
</svg>
