<svg width="72" height="60" viewBox="0 0 72 60" xmlns="http://www.w3.org/2000/svg">
	<path d="M1.29202 49.6851C0.96102 49.6851 0.632019 49.5471 0.398019 49.2771C-0.029981 48.7841 0.0230184 48.0371 0.517018 47.6091C0.863018 47.3101 9.11702 40.2681 20.058 40.2681C27.209 40.2681 31.38 42.0891 35.414 43.8511C39.499 45.6351 43.359 47.3211 50.355 47.3211C64.009 47.3211 69.748 40.7521 69.804 40.6851C70.227 40.1871 70.973 40.1271 71.471 40.5491C71.969 40.9721 72.03 41.7181 71.607 42.2161C71.348 42.5211 65.091 49.6861 50.356 49.6861C42.866 49.6861 38.596 47.8221 34.468 46.0181C30.481 44.2781 26.715 42.6331 20.059 42.6331C9.99002 42.6331 2.14402 49.3291 2.06602 49.3971C1.84302 49.5901 1.56702 49.6851 1.29202 49.6851Z" />
	<path d="M50.356 59.762C42.8671 59.762 38.597 57.898 34.469 56.094C30.482 54.353 26.716 52.708 20.059 52.708C15.157 52.708 10.204 54.168 7.44105 56.428C6.93505 56.842 6.19004 56.766 5.77704 56.261C5.36404 55.755 5.43804 55.011 5.94404 54.597C9.15304 51.974 14.561 50.343 20.059 50.343C27.21 50.343 31.381 52.165 35.415 53.926C39.5 55.711 43.3601 57.397 50.356 57.397C57.529 57.397 62.473 55.555 65.359 54.01C65.935 53.701 66.6521 53.918 66.9601 54.494C67.2691 55.069 67.052 55.786 66.476 56.095C63.353 57.768 58.0201 59.762 50.356 59.762Z" />
	<path d="M24.084 19.8959C24.083 19.8959 24.084 19.8959 24.084 19.8959C23.325 19.8959 22.572 19.7739 21.848 19.5339C20.048 18.9339 18.594 17.6749 17.75 15.9839C16.911 14.3009 16.778 12.3919 17.377 10.6099C18.347 7.72987 21.044 5.79688 24.088 5.79688C24.85 5.79688 25.607 5.91987 26.334 6.16287C28.133 6.76087 29.588 8.02187 30.432 9.71487C31.271 11.3969 31.402 13.3039 30.802 15.0829C29.837 17.9609 27.137 19.8959 24.084 19.8959ZM24.088 8.16187C22.06 8.16187 20.264 9.44887 19.618 11.3639C19.222 12.5459 19.309 13.8119 19.867 14.9279C20.427 16.0519 21.394 16.8909 22.593 17.2879C23.075 17.4479 23.578 17.5299 24.083 17.5299H24.084C26.119 17.5299 27.918 16.2439 28.561 14.3289C28.958 13.1479 28.872 11.8839 28.315 10.7679C27.754 9.64288 26.786 8.80387 25.587 8.40587C25.1 8.24387 24.595 8.16187 24.088 8.16187Z" />
	<path d="M8.79701 39.882L11.688 26.965C12.1 25.12 11.735 23.157 10.686 21.58L7.37801 16.614C6.93201 15.926 6.74101 15.121 6.83201 14.33L8.16701 3.04397C8.36701 1.32897 9.92901 0.061972 11.696 0.258972C13.312 0.446972 14.523 1.80697 14.516 3.42497C14.533 6.85197 14.604 12.623 14.726 13.475C14.848 14.325 17.338 18.768 19.927 20.187C20.387 20.44 22.222 21.027 29.312 21.027C35.097 21.027 41.255 20.632 41.316 20.629L41.378 20.625L41.441 20.627C42.432 20.669 43.345 21.093 44.013 21.82C44.671 22.539 45.01 23.469 44.967 24.44C44.896 26.329 43.347 27.877 41.441 27.956L31.846 28.312C29.557 28.397 27.614 30.009 27.12 32.232L25.828 38.062L24.696 37.84C23.374 37.581 21.972 37.45 20.532 37.45C16.659 37.45 13.1 38.397 10.797 39.191L8.79701 39.882ZM11.337 2.60397C10.917 2.60397 10.564 2.91197 10.516 3.31997L9.18101 14.605C9.16101 14.775 9.17501 15.041 9.35201 15.314L12.655 20.27C14.059 22.381 14.549 25.01 13.996 27.482L12.015 36.335C14.35 35.677 17.335 35.086 20.536 35.086C21.724 35.086 22.889 35.168 24.015 35.328L24.815 31.721C25.541 28.448 28.397 26.075 31.761 25.95L41.351 25.594C42.028 25.566 42.581 25.016 42.608 24.344C42.624 23.997 42.504 23.672 42.273 23.42C42.045 23.171 41.736 23.022 41.397 22.994C40.679 23.039 34.831 23.392 29.314 23.392C21.73 23.392 19.676 22.747 18.793 22.262C15.537 20.476 12.617 15.411 12.388 13.813C12.2 12.519 12.159 4.35397 12.155 3.42597C12.156 3.00397 11.844 2.65697 11.43 2.60897C11.401 2.60497 11.369 2.60397 11.337 2.60397Z" />
	<path d="M55.387 30.3459C52.851 30.3459 50.601 28.7349 49.788 26.3369C49.287 24.8439 49.399 23.2499 50.1 21.8459C50.803 20.4379 52.015 19.3869 53.511 18.8899C54.12 18.6879 54.75 18.5859 55.384 18.5859C57.924 18.5859 60.175 20.1989 60.986 22.5999C61.485 24.0939 61.372 25.6879 60.669 27.0909C59.965 28.4969 58.754 29.5449 57.256 30.0409C56.65 30.2429 56.021 30.3459 55.387 30.3459ZM55.385 20.9509C55.003 20.9509 54.624 21.0129 54.257 21.1339C53.362 21.4319 52.638 22.0599 52.216 22.9029C51.798 23.7409 51.732 24.6929 52.028 25.5819C52.513 27.0149 53.864 27.9799 55.386 27.9799C55.766 27.9799 56.145 27.9179 56.51 27.7969C57.407 27.4989 58.133 26.8729 58.554 26.0319C58.973 25.1939 59.04 24.2419 58.743 23.3519C58.26 21.9169 56.909 20.9509 55.385 20.9509Z" />
	<path d="M53.968 45.266L52.853 40.236C52.517 38.715 51.187 37.613 49.621 37.555L41.683 37.261C40.034 37.203 38.686 35.867 38.616 34.222C38.584 33.365 38.887 32.554 39.47 31.932C40.049 31.315 40.835 30.956 41.684 30.926L41.744 30.923L41.804 30.927C41.854 30.93 46.751 31.242 51.362 31.242C57.168 31.242 58.523 30.747 58.8 30.596C60.783 29.507 62.712 26.098 62.833 25.41C62.934 24.726 62.987 20.123 62.999 17.379C62.999 15.965 64.062 14.778 65.473 14.623C65.574 14.61 65.686 14.604 65.797 14.604C67.201 14.604 68.389 15.656 68.559 17.052L69.622 26.087C69.707 26.78 69.538 27.486 69.148 28.071L66.213 32.478C65.591 33.411 65.374 34.573 65.618 35.665L66.538 39.775L66.221 40.209C63.891 43.39 55.982 44.899 55.088 45.062L53.968 45.266ZM41.723 33.292C41.519 33.311 41.332 33.401 41.193 33.55C41.047 33.707 40.969 33.912 40.977 34.126C40.995 34.542 41.342 34.882 41.767 34.897L49.706 35.19C52.35 35.288 54.593 37.151 55.162 39.723L55.779 42.509C58.603 41.883 62.467 40.643 63.98 39.185L63.308 36.182C62.924 34.463 63.264 32.635 64.242 31.168L67.177 26.761C67.278 26.612 67.283 26.465 67.272 26.368L66.209 17.333C66.182 17.11 65.971 16.943 65.743 16.972C65.523 16.996 65.361 17.176 65.361 17.383C65.356 18.601 65.325 24.704 65.173 25.743C64.998 27.039 62.62 31.195 59.935 32.668C59.199 33.071 57.51 33.606 51.36 33.606C46.982 33.607 42.358 33.331 41.723 33.292Z" />
</svg>