<svg viewBox="0 0 26 32" fill="none" xmlns="http://www.w3.org/2000/svg">
    <path d="M21.6084 13.041H21.6646C21.4033 17.8378 17.4059 21.6516 12.5412 21.6516C7.6782 21.6516 3.70382 17.8394 3.44416 13.041H3.50033C3.75959 17.8104 7.70488 21.6219 12.5412 21.6219C17.3757 21.6219 21.3475 17.8122 21.6084 13.041Z" fill="#3EBBC4" stroke="white" />
    <path d="M12.2076 31.336L12.2077 31.3359L12.199 31.3297C11.6397 30.9284 10.6347 29.9549 9.44045 28.632C8.25632 27.3203 6.91403 25.6964 5.68376 24.0212C4.54373 22.4618 3.29269 20.584 2.3057 18.6717C1.31372 16.7497 0.612509 14.8382 0.525701 13.2012L0.524937 13.1868L0.523345 13.1725C0.500476 12.9667 0.5 12.7562 0.5 12.5413C0.5 5.90127 5.92494 0.5 12.5677 0.5C19.209 0.5 24.6089 5.8999 24.6089 12.5413V13.1621C24.5256 14.7499 23.8515 16.6333 22.8241 18.6088C21.7987 20.5805 20.4439 22.6017 19.0498 24.4479C17.6567 26.2928 16.2313 27.954 15.0704 29.2048C14.4899 29.8303 13.9779 30.3507 13.5711 30.7387C13.2463 31.0485 13.0071 31.2558 12.8599 31.368H12.783L12.6737 31.4772C12.6627 31.4804 12.649 31.4841 12.6312 31.4885L12.5853 31.5H12.5677C12.4874 31.5 12.3822 31.4669 12.2076 31.336ZM12.6365 31.5144C12.6369 31.5141 12.6372 31.5138 12.6375 31.5135L12.6365 31.5144ZM0.592218 13.1674L0.60535 13.233L0.615857 13.254C0.723849 14.8717 1.40252 16.718 2.34985 18.5693C3.32287 20.4709 4.60258 22.422 5.9178 24.2045C7.23389 25.9881 8.59223 27.6118 9.72801 28.8597C10.2959 29.4835 10.8104 30.016 11.2382 30.4289C11.6576 30.8336 12.0169 31.1464 12.2685 31.3102L12.3929 31.3911H12.5413H12.5677H12.73L12.8614 31.2957C13.3191 30.9635 14.2527 30.0439 15.3754 28.799C16.5113 27.5396 17.8731 25.9109 19.1937 24.1295C20.5135 22.3493 21.7988 20.4078 22.7763 18.5236C23.7486 16.6497 24.4409 14.7865 24.5257 13.1748L24.5264 13.1617V13.1485V12.5413C24.5264 5.92848 19.154 0.556106 12.5413 0.556106C5.92848 0.556106 0.556106 5.92848 0.556106 12.5413C0.556106 12.5499 0.556099 12.5589 0.556092 12.5681C0.555967 12.7322 0.555775 12.9852 0.592218 13.1674Z" fill="#3EBBC4" stroke="white" />
    <path d="M8.02472 11.5644V10.3572L7.17117 11.2108L6.94386 11.4381L6.9117 11.4059L12.5148 5.80281L14.6167 7.9047L15.4703 8.75825V7.55115V6.81022H17.0049V10.0858V10.2929L17.1514 10.4394L18.1179 11.4059L18.0858 11.4381L17.8585 11.2108L17.0049 10.3572V11.5644V17.7442H8.02472V11.5644ZM15.5 7.36633V8.87222L12.8697 6.22203L12.5162 5.86581L12.1613 6.2207L8.22727 10.1547L8.08083 10.3011V10.5082V17.1881V17.6881H8.58083H16.4224H16.9224V17.1881V10.5082V10.429V7.36633V6.86633H16.4224H16H15.5V7.36633Z" fill="#3EBBC4" stroke="white" />
</svg>