<svg width="65" height="60" viewBox="0 0 65 60" xmlns="http://www.w3.org/2000/svg">
    <path d="M22.496 59.678C21.928 59.678 21.428 59.27 21.33 58.692C21.108 57.388 20.789 56.046 20.382 54.699C20.053 53.944 16.678 46.29 14.031 43.005C12.484 41.085 11.964 38.742 12.525 36.231C12.972 34.233 14.129 32.246 15.617 30.916C18.361 28.466 24.478 28.106 29.58 31.803C33.368 34.549 45.044 30.712 46.803 29.312C47.017 29.142 47.363 28.808 47.287 28.474C47.205 28.119 46.676 27.638 45.708 27.421C45.156 27.298 44.286 27.319 43.368 27.341C40.951 27.398 36.911 27.493 36.787 23.659C36.731 21.979 37.433 21.008 38.031 20.488C39.539 19.176 41.826 19.403 42.417 19.488L47.458 19.439C47.901 19.434 48.315 19.38 48.689 19.279C49.414 19.084 49.841 18.819 50.337 18.513C51.147 18.012 52.065 17.444 53.959 17.444C55.041 17.444 60.488 17.96 61.558 28.126C62.372 35.864 62.034 40.663 61.989 41.232C61.992 41.486 62.052 43.682 63.416 46.137C64.605 48.283 65.454 51.522 64.669 53.926C64.284 55.102 63.539 55.974 62.513 56.447C60.724 57.273 59.398 56.934 58.601 56.505C57.939 56.149 57.398 55.572 57.034 54.84L54.352 49.431C54.344 49.415 54.329 49.383 54.271 49.379C54.209 49.376 54.191 49.404 54.181 49.419L50.297 55.022C49.352 56.071 46.958 57.666 44.659 56.188C42.118 54.556 42.29 51.344 43.222 49.585C43.827 48.443 47.703 41.107 47.703 41.107C47.922 40.663 48.029 40.049 47.952 39.895C47.482 39.713 45.481 40.275 44.286 40.611C43.338 40.878 42.356 41.154 41.455 41.321C40.316 41.532 38.566 41.756 36.253 41.986C35.909 42.02 35.742 42.252 35.687 42.35C35.621 42.468 35.528 42.707 35.662 42.993C37.134 46.13 38.995 50.8 39.509 55.236C39.624 56.234 39.707 57.144 39.763 58.016C39.805 58.668 39.309 59.231 38.657 59.273C38.008 59.31 37.442 58.82 37.399 58.167C37.346 57.335 37.267 56.465 37.157 55.508C36.655 51.173 34.663 46.438 33.519 44C33.097 43.1 33.137 42.046 33.628 41.182C34.124 40.31 35.018 39.73 36.02 39.631C38.236 39.409 39.966 39.19 41.026 38.993C41.822 38.846 42.75 38.585 43.648 38.333C45.942 37.687 47.924 37.132 49.177 37.878C50.667 38.766 50.569 40.686 49.809 42.194C49.799 42.215 45.921 49.553 45.316 50.695C45.057 51.183 44.404 53.21 45.94 54.196C47.018 54.889 48.252 53.73 48.496 53.482L52.233 48.074C52.734 47.348 53.557 46.957 54.442 47.016C55.323 47.08 56.084 47.589 56.475 48.379L59.156 53.787C59.298 54.074 59.501 54.299 59.725 54.42C60.193 54.674 60.798 54.631 61.521 54.297C61.946 54.101 62.239 53.738 62.417 53.191C62.891 51.743 62.44 49.259 61.345 47.287C59.574 44.096 59.619 41.27 59.622 41.152L59.626 41.078C59.631 41.03 60.027 36.203 59.204 28.375C58.328 20.053 54.405 19.813 53.961 19.813C52.739 19.813 52.279 20.096 51.584 20.527C51.041 20.863 50.365 21.281 49.308 21.566C48.74 21.719 48.126 21.8 47.483 21.807L42.235 21.858L42.129 21.838C41.687 21.765 40.258 21.686 39.583 22.277C39.47 22.377 39.125 22.677 39.154 23.58C39.192 24.764 40.049 25.05 43.312 24.973C44.381 24.948 45.39 24.924 46.224 25.11C47.992 25.505 49.284 26.59 49.594 27.943C49.864 29.111 49.383 30.285 48.278 31.165C46.409 32.653 33.368 37.472 28.19 33.721C24.235 30.855 19.221 30.873 17.196 32.682C13.848 35.674 14.428 39.725 15.876 41.521C18.85 45.212 22.432 53.472 22.583 53.822L22.628 53.946C23.075 55.41 23.423 56.875 23.665 58.299C23.774 58.944 23.341 59.554 22.696 59.664C22.629 59.672 22.561 59.678 22.496 59.678Z" />
    <path d="M10.652 27.929C5.02199 27.929 0.442993 23.379 0.442993 17.785C0.442993 12.191 5.02199 7.63995 10.652 7.63995C16.281 7.63995 20.861 12.191 20.861 17.785C20.861 23.379 16.281 27.929 10.652 27.929ZM10.652 10.009C6.32799 10.009 2.80999 13.497 2.80999 17.785C2.80999 22.073 6.32799 25.561 10.652 25.561C14.974 25.561 18.493 22.073 18.493 17.785C18.493 13.497 14.976 10.009 10.652 10.009Z"/>
    <path d="M53.163 15.194C48.991 15.194 45.598 11.82 45.598 7.67395C45.598 3.52795 48.992 0.152954 53.163 0.152954C57.336 0.152954 60.729 3.52695 60.729 7.67395C60.729 11.82 57.336 15.194 53.163 15.194ZM53.163 2.52195C50.297 2.52195 47.965 4.83395 47.965 7.67395C47.965 10.514 50.297 12.825 53.163 12.825C56.029 12.825 58.361 10.513 58.361 7.67395C58.361 4.83395 56.029 2.52195 53.163 2.52195Z"/>
</svg>