<svg width="55" height="55" viewBox="0 0 55 55" fill="none" xmlns="http://www.w3.org/2000/svg">
<path d="M26.7109 44.5234C28.2148 42.3815 29.3542 40.0117 30.1289 37.4141C30.9036 34.8164 31.291 32.1276 31.291 29.3477C31.291 28.4362 31.2454 27.5475 31.1543 26.6816C31.1087 25.8158 30.9948 24.9499 30.8125 24.084C30.1745 20.8939 29.263 18.1139 28.0781 15.7441C26.9388 13.3288 25.7311 11.3236 24.4551 9.72852C23.179 8.08789 21.9714 6.85742 20.832 6.03711C19.6927 5.17122 18.8496 4.69271 18.3027 4.60156C18.1204 5.10286 17.8242 5.46745 17.4141 5.69531C17.0951 5.8776 16.776 5.96875 16.457 5.96875C16.1836 5.96875 15.9102 5.92318 15.6367 5.83203C15.3633 5.74089 15.0443 5.62695 14.6797 5.49023C14.4974 5.58138 14.224 5.62695 13.8594 5.62695C13.2214 5.62695 12.7428 5.39909 12.4238 4.94336C11.6491 5.44466 10.9199 6.19661 10.2363 7.19922C9.37044 8.38411 8.5957 9.84245 7.91211 11.5742C7.22852 13.2604 6.63607 15.1061 6.13477 17.1113C5.67904 19.071 5.31445 21.099 5.04102 23.1953C4.76758 25.2917 4.63086 27.3424 4.63086 29.3477C4.63086 30.487 4.65365 31.5807 4.69922 32.6289C4.79036 33.6771 4.94987 34.6797 5.17773 35.6367C5.63346 38.1888 6.4082 40.3307 7.50195 42.0625C8.5957 43.7943 9.80339 45.207 11.125 46.3008C12.4922 47.349 13.9049 48.1009 15.3633 48.5566C16.8672 49.0124 18.2572 49.2402 19.5332 49.2402C19.8066 49.2402 20.0573 49.2402 20.2852 49.2402C20.5586 49.2402 20.832 49.1947 21.1055 49.1035C21.7435 49.0124 22.5638 48.625 23.5664 47.9414C24.569 47.2122 25.6172 46.0729 26.7109 44.5234ZM17.9609 0.705078C19.1003 0.705078 20.4674 1.20638 22.0625 2.20898C23.6576 3.21159 25.2526 4.69271 26.8477 6.65234C28.4883 8.56641 30.015 10.9362 31.4277 13.7617C32.8405 16.5417 33.8887 19.7318 34.5723 23.332C34.9368 25.4284 35.1191 27.4336 35.1191 29.3477C35.1191 32.4922 34.6634 35.5684 33.752 38.5762C32.8861 41.5384 31.5872 44.25 29.8555 46.7109C28.625 48.4427 27.2806 49.8555 25.8223 50.9492C24.4095 52.043 23.0195 52.7038 21.6523 52.9316C21.2878 53.0228 20.9004 53.0684 20.4902 53.0684C20.1257 53.0684 19.7383 53.0684 19.3281 53.0684C17.4596 53.0684 15.5684 52.7266 13.6543 52.043C11.7402 51.3594 9.96289 50.334 8.32227 48.9668C6.68164 47.554 5.24609 45.8223 4.01562 43.7715C2.83073 41.6751 1.96484 39.2142 1.41797 36.3887C1.00781 34.2923 0.802734 31.9681 0.802734 29.416C0.802734 27.2285 0.939453 24.9727 1.21289 22.6484C1.5319 20.3242 1.96484 18.0911 2.51172 15.9492C3.05859 13.7617 3.7194 11.7337 4.49414 9.86523C5.26888 7.99674 6.13477 6.37891 7.0918 5.01172C8.77799 2.55078 10.7148 1.13802 12.9023 0.773438C13.0391 0.727865 13.1758 0.705078 13.3125 0.705078C13.4948 0.705078 13.6543 0.705078 13.791 0.705078C14.5658 0.705078 15.2266 0.841797 15.7734 1.11523C16.0469 1.02409 16.3203 0.955729 16.5938 0.910156C16.8672 0.864583 17.1634 0.81901 17.4824 0.773438L17.9609 0.705078ZM52.6191 26.4082C52.6191 27.2741 52.6647 28.5046 52.7559 30.0996C52.8926 31.6947 53.0293 33.4492 53.166 35.3633C53.3483 37.2318 53.5306 39.1686 53.7129 41.1738C53.8952 43.1335 54.0775 44.9336 54.2598 46.5742C54.4421 48.1693 54.5788 49.5137 54.6699 50.6074C54.8066 51.6556 54.875 52.2025 54.875 52.248C54.875 52.7493 54.6927 53.1595 54.3281 53.4785C54.0091 53.8431 53.5534 54.071 52.9609 54.1621C52.4596 54.1621 52.0267 54.0026 51.6621 53.6836C51.2975 53.3646 51.0924 52.9544 51.0469 52.4531C51.0013 52.3164 50.9102 51.7012 50.7734 50.6074C50.6823 49.5137 50.5456 48.1465 50.3633 46.5059C50.2266 44.8652 50.0671 43.0651 49.8848 41.1055C49.7025 39.1458 49.5202 37.2318 49.3379 35.3633C49.2012 33.4948 49.0645 31.763 48.9277 30.168C48.8366 28.5729 48.791 27.3197 48.791 26.4082C48.791 25.1777 48.7454 23.651 48.6543 21.8281C48.5632 20.0052 48.4492 18.1139 48.3125 16.1543C48.1758 14.1947 47.9935 12.2578 47.7656 10.3438C47.5833 8.42969 47.401 6.78906 47.2188 5.42188C46.3073 6.0599 45.4186 6.67513 44.5527 7.26758C43.7324 7.86003 43.0033 8.38411 42.3652 8.83984C41.7728 9.29557 41.2943 9.66016 40.9297 9.93359L40.3145 10.4121C39.9954 10.7311 39.6081 10.8906 39.1523 10.8906C38.5599 10.8906 38.0814 10.6628 37.7168 10.207C37.3978 9.88802 37.2383 9.47786 37.2383 8.97656C37.2383 8.42969 37.4206 7.97396 37.7852 7.60938C37.8307 7.5638 38.127 7.33594 38.6738 6.92578C39.2207 6.47005 39.9043 5.94596 40.7246 5.35352C41.5905 4.71549 42.5475 4.0319 43.5957 3.30273C44.6439 2.52799 45.7148 1.79883 46.8086 1.11523C47.1276 0.932943 47.4694 0.841797 47.834 0.841797C48.1986 0.841797 48.5632 0.955729 48.9277 1.18359C49.3379 1.22917 49.7025 1.38867 50.0215 1.66211C50.3405 1.93555 50.5456 2.27734 50.6367 2.6875C50.9102 3.96354 51.1608 5.67253 51.3887 7.81445C51.6165 9.91081 51.8216 12.1211 52.0039 14.4453C52.1862 16.7695 52.3229 19.0254 52.4141 21.2129C52.5508 23.3548 52.6191 25.0866 52.6191 26.4082Z" fill="#5ACFA3"/>
</svg>
