<svg width="75" height="62" viewBox="0 0 75 62" fill="none" xmlns="http://www.w3.org/2000/svg">
<path d="M68.2058 30.967L68.134 31.0203C68.134 31.0135 68.134 31.0072 68.134 31C68.134 13.8793 54.4227 0 37.4286 0C20.4448 0 6.70894 13.8614 6.69079 30.967L0 30.9833C0 30.9833 2.86844 31.62 4.51116 33.2741C6.05564 34.8313 7.46481 37.8117 7.46481 37.8117L7.45968 37.7417C10.5155 51.6186 22.798 62 37.4937 62C52.1898 62 64.473 51.617 67.5277 37.7377L67.5198 37.8117C67.5198 37.8117 68.985 34.8313 70.5291 33.2741C72.1726 31.62 75 30.9833 75 30.9833L68.2058 30.967Z" fill="white"/>
<path d="M34.3396 56.0088H29.8213C28.5837 56.0088 27.5755 54.9998 27.5755 53.7589V52.5658C27.5755 51.8845 27.3193 51.235 26.8563 50.7393L22.5018 46.0806C21.5163 45.0288 20.7753 43.803 20.2989 42.4394L19.6343 40.5389C19.2134 39.3325 19 38.0756 19 36.8028V30.9821C19 30.4209 19.1848 29.884 19.5192 29.4741C19.9494 28.9506 20.5711 28.6616 21.271 28.6616C21.7549 28.6616 22.1926 28.786 22.5715 29.0321C23.2117 29.4438 23.594 30.1697 23.594 30.967V34.3226C23.594 34.8704 23.1496 35.3157 22.6009 35.3157C22.0523 35.3157 21.6079 34.8712 21.6079 34.3226V30.967C21.6079 30.8519 21.5616 30.7435 21.4928 30.6998C21.4734 30.6864 21.4129 30.6477 21.2701 30.6477C21.1348 30.6477 21.0928 30.6856 21.055 30.7318C21.0105 30.7855 20.9845 30.8813 20.9845 30.983V36.8036C20.9845 37.8538 21.1601 38.8906 21.507 39.8853L22.1724 41.7857C22.5572 42.8872 23.1546 43.8761 23.9502 44.7263L28.3048 49.3833C29.1147 50.2478 29.56 51.3787 29.56 52.5667V53.7597C29.56 53.9059 29.6768 54.0235 29.8204 54.0235H34.3388C34.4825 54.0235 34.5992 53.905 34.5992 53.7597V49.774C34.5992 48.1348 33.933 46.5957 32.7702 45.5555C32.708 45.5001 32.6434 45.4438 32.5753 45.3884C29.8154 43.093 25.628 38.8948 24.7139 37.9076C24.7013 37.9126 24.6887 37.9244 24.6778 37.9403C24.6072 38.0521 24.577 38.4503 24.971 39.1661C26.2237 41.4404 27.9057 42.9813 27.9233 42.9964C28.3291 43.3652 28.3602 43.9928 27.9914 44.3995C27.6226 44.8044 26.9933 44.8347 26.5892 44.4667C26.5102 44.3944 24.6425 42.6847 23.2327 40.1231C22.1825 38.2159 22.7093 36.8952 23.552 36.2961C24.3661 35.7173 25.4928 35.8055 26.1178 36.4995C26.6883 37.1313 30.953 41.4547 33.8414 43.8576C33.9254 43.9265 34.0111 44.0021 34.096 44.076C35.6797 45.4951 36.5871 47.5711 36.5871 49.7748V53.7605C36.5862 54.9998 35.578 56.0088 34.3396 56.0088Z" fill="#FBCADB"/>
<path d="M44.177 56.0088H39.6595C38.4203 56.0088 37.4138 54.9998 37.4138 53.7589V49.7731C37.4138 47.5694 38.3211 45.4934 39.904 44.076C39.988 44.0004 40.0745 43.9248 40.1653 43.8509C43.0453 41.4547 47.3117 37.1296 47.883 36.4978C48.5081 35.8055 49.6356 35.7147 50.448 36.2945C51.2915 36.8935 51.8183 38.2142 50.7681 40.1214C49.3583 42.683 47.4915 44.3928 47.4125 44.465C47.0059 44.8338 46.3791 44.8028 46.0094 44.3978C45.6414 43.9928 45.6717 43.3644 46.0766 42.9964C46.101 42.972 47.7881 41.4177 49.029 39.1644C49.423 38.4486 49.3936 38.0504 49.323 37.9386C49.3113 37.9218 49.2987 37.9109 49.2869 37.9059C48.3711 38.8956 44.1821 43.093 41.4297 45.3816C41.3558 45.4421 41.2919 45.4984 41.2298 45.5555C40.0678 46.594 39.3999 48.1331 39.3999 49.7731V53.7589C39.3999 53.905 39.5184 54.0227 39.6612 54.0227H44.1787C44.3216 54.0227 44.44 53.9042 44.44 53.7589V52.5658C44.44 51.3778 44.8845 50.2487 45.6952 49.3825L50.0489 44.7255C50.8429 43.8752 51.4419 42.8863 51.8275 41.7849L52.4921 39.8828C52.8399 38.8897 53.0155 37.853 53.0155 36.8028V30.9821C53.0155 30.8805 52.9895 30.7872 52.9433 30.7309C52.9055 30.6847 52.8643 30.6469 52.7299 30.6469C52.587 30.6469 52.5282 30.6864 52.5064 30.699C52.4375 30.7435 52.3913 30.8519 52.3913 30.9662V34.3218C52.3913 34.8695 51.9468 35.3148 51.3982 35.3148C50.8496 35.3148 50.4051 34.8704 50.4051 34.3218V30.9662C50.4051 30.1672 50.7874 29.4438 51.4293 29.0296C51.8065 28.7851 52.2451 28.6608 52.729 28.6608C53.4297 28.6608 54.0514 28.9498 54.4799 29.4732C54.8143 29.8815 55 30.4184 55 30.9813V36.8019C55 38.0773 54.7866 39.3325 54.3648 40.5381L53.7003 42.4385C53.223 43.8021 52.4829 45.0279 51.4982 46.0815L47.1428 50.7385C46.6799 51.2342 46.4245 51.8819 46.4245 52.565V53.758C46.4236 54.9998 45.4163 56.0088 44.177 56.0088Z" fill="#FBCADB"/>
<path d="M33.3012 41.0691C32.7063 41.0691 32.1073 40.8608 31.5948 40.4667C30.8009 39.8542 29.8363 38.5108 29.7582 35.582C29.6633 32.0164 30.3127 30.0093 30.4791 29.5581C30.5303 29.3203 30.7252 28.313 30.7588 26.8637C30.7622 26.7293 30.6832 26.6537 30.6362 26.6192C30.5891 26.5864 30.4917 26.5386 30.369 26.5848L28.8685 27.1494C27.9687 27.4871 26.9958 27.5333 26.1279 27.2787C25.0567 26.9637 24.6467 26.3529 24.4921 25.8967C24.0098 24.4802 24.8408 23.2955 25.8674 22.9007C26.0338 22.8368 26.1985 22.7956 26.3875 22.7494C26.8605 22.6343 27.6528 22.4428 29.1474 21.6203C30.6169 20.8112 31.8989 18.7175 32.2568 18.0958C32.5845 17.5262 32.9945 17.0506 33.4776 16.681C34.2531 16.0887 35.5595 15.3896 37.4129 15.409L38.406 15.4224L38.3799 17.4077L37.3877 17.3943C36.1006 17.3699 35.2108 17.8555 34.6841 18.2571C34.411 18.4655 34.1741 18.7444 33.9775 19.0838C33.3045 20.2558 31.9057 22.3672 30.1052 23.3586C28.3787 24.3088 27.4259 24.5398 26.8563 24.6776C26.7446 24.7053 26.6286 24.7331 26.5832 24.7499C26.4337 24.8087 26.2774 24.9389 26.3623 25.2254C26.3967 25.2548 26.4959 25.3136 26.6874 25.3716C27.1445 25.506 27.6713 25.4766 28.1703 25.2876L29.6717 24.723C30.3791 24.4575 31.168 24.5608 31.7864 24.9969C32.4039 25.4346 32.7626 26.1487 32.7458 26.9049C32.7021 28.7952 32.4123 30.021 32.4005 30.0723L32.3509 30.2235C32.3459 30.2353 31.6503 32.0055 31.7452 35.5257C31.8074 37.874 32.5081 38.6612 32.8072 38.8914C33.0962 39.1132 33.3331 39.088 33.4213 39.067C33.9498 38.9427 33.9809 38.7998 34.064 38.4176C34.106 38.221 34.0934 37.9908 34.0279 37.7513C33.9162 37.343 33.5406 35.8097 33.3835 34.7385C33.1525 33.1464 33.3692 31.9584 34.0321 31.2073C34.6748 30.4772 35.457 30.4529 35.6124 30.4571H38.3934V32.4424H35.6292C35.4419 32.4919 35.1403 33.0313 35.3478 34.4529C35.4923 35.4409 35.8536 36.9011 35.9418 37.2262C36.0939 37.7807 36.114 38.3226 36.0031 38.8376C35.8897 39.3611 35.6242 40.5869 33.8784 41.0002C33.6885 41.0464 33.4952 41.0691 33.3012 41.0691Z" fill="#FBCADB"/>
<path d="M41.4986 41.0691C41.3054 41.0691 41.1113 41.0464 40.9223 41.0019C39.1781 40.5885 38.9101 39.3627 38.7975 38.841C38.6858 38.3243 38.7059 37.7807 38.858 37.2279C38.9462 36.9011 39.3075 35.4392 39.452 34.4545C39.6536 33.0716 39.3697 32.6246 39.2781 32.5196C39.2571 32.4969 39.2537 32.4339 39.2243 32.4423L36.4073 32.444V30.4587H39.2067C39.3377 30.452 40.1258 30.478 40.7685 31.2073C41.4314 31.9601 41.6499 33.1489 41.4163 34.7402C41.26 35.8072 40.8845 37.343 40.7727 37.753C40.7072 37.9924 40.6938 38.2226 40.7366 38.4192C40.8206 38.8015 40.8517 38.9443 41.3802 39.0687C41.4675 39.0897 41.7036 39.1166 41.9935 38.8931C42.2917 38.6637 42.9941 37.8756 43.0571 35.5274C43.1504 32.008 42.4547 30.2369 42.448 30.2193L42.4018 30.0748C42.3884 30.0235 42.0985 28.7977 42.0557 26.9074C42.038 26.1512 42.3968 25.4388 43.0143 24.9994C43.631 24.5625 44.4224 24.4591 45.1298 24.7255L46.6295 25.2901C47.1285 25.4774 47.6553 25.5085 48.1132 25.3741C48.3039 25.3169 48.4039 25.2573 48.4384 25.2279C48.524 24.9389 48.3678 24.8112 48.2182 24.7524C48.172 24.7355 48.0561 24.7078 47.9443 24.6801C47.3747 24.5423 46.4228 24.3113 44.6954 23.361C42.8967 22.3713 41.497 20.2583 40.8232 19.0863C40.6282 18.7469 40.3896 18.468 40.1157 18.2596C39.5906 17.8572 38.6992 17.3783 37.4129 17.3968L36.4199 17.4102L36.3955 15.4249L37.3877 15.4115C37.418 15.4115 37.4474 15.4115 37.4768 15.4115C39.2789 15.4115 40.5602 16.1004 41.3239 16.6835C41.8061 17.054 42.2178 17.5287 42.5446 18.0983C42.9025 18.72 44.1872 20.8154 45.6541 21.6228C47.1487 22.4453 47.9401 22.6368 48.4123 22.7519C48.603 22.7981 48.7669 22.8393 48.9324 22.9032C49.9599 23.2989 50.7916 24.4835 50.3094 25.8992C50.1531 26.3554 49.7431 26.9662 48.6719 27.2812C47.804 27.5358 46.8328 27.4896 45.9313 27.1518L44.4316 26.5873C44.309 26.541 44.2115 26.5889 44.1645 26.6217C44.1174 26.6545 44.0401 26.7318 44.0418 26.8662C44.0763 28.3138 44.2712 29.3195 44.3224 29.5606C44.4879 30.0118 45.1382 32.0206 45.0424 35.5845C44.9635 38.5133 44.0006 39.8576 43.2058 40.4692C42.6933 40.8607 42.0943 41.0691 41.4986 41.0691Z" fill="#FBCADB"/>
<path d="M37.3172 16.7574C34.359 16.7574 31.9519 14.3436 31.9519 11.3787C31.9519 8.4121 34.359 6 37.3172 6C40.2762 6 42.6833 8.4121 42.6833 11.3787C42.6841 14.3436 40.2762 16.7574 37.3172 16.7574ZM37.3172 7.9853C35.4537 7.9853 33.938 9.50767 33.938 11.3787C33.938 13.2497 35.4545 14.7721 37.3172 14.7721C39.1815 14.7721 40.698 13.2497 40.698 11.3787C40.698 9.50767 39.1823 7.9853 37.3172 7.9853Z" fill="#FBCADB"/>
</svg>
