<svg width="3047" height="1079" viewBox="0 0 3047 1079" fill="none" xmlns="http://www.w3.org/2000/svg">
<path d="M0 259.478H906.065H1528.79H3044.89C3044.89 259.478 3006.82 718.522 3044.89 934.5C3082.95 1150.48 2088.07 912 2088.07 912C2088.07 912 1353.28 785.945 970.557 857.478C587.832 929.012 0 961.5 0 961.5V259.478Z" fill="#56CCF2"/>
<path opacity="0.5" d="M2.1145 283.868H908.179H1530.9H3047C3047 283.868 3047 739.779 3047 958.89C3047 1178 1986.58 1030 1986.58 1030C1986.58 1030 1433.63 958.89 972.672 881.868C511.71 804.846 2.1145 1030 2.1145 1030V283.868Z" fill="#56CCF2"/>
<path d="M0 0H906.065H1528.79H3044.89C3044.89 0 3044.89 697.5 3044.89 854C3044.89 1010.5 1917.33 854 1917.33 854C1917.33 854 1172.49 763.5 789.767 854C407.042 944.5 0 854 0 854V0Z" fill="#2D9CDB"/>
</svg>
