<svg style="display: none;" aria-hidden="true" xmlns="http://www.w3.org/2000/svg" xmlns:xlink="http://www.w3.org/1999/xlink"><symbol viewBox="0 0 512 512" id="svg-telegram"><path d="M477,43.86,13.32,223.29a5.86,5.86,0,0,0-.8.38c-3.76,2.13-30,18.18,7,32.57l.38.14,110.41,35.67a6.08,6.08,0,0,0,5.09-.62L409.25,120.57a6,6,0,0,1,2.2-.83c3.81-.63,14.78-1.81,7.84,7-7.85,10-194.9,177.62-215.66,196.21a6.3,6.3,0,0,0-2.07,4.17l-9.06,108a7.08,7.08,0,0,0,2.83,5.67,6.88,6.88,0,0,0,8.17-.62l65.6-58.63a6.09,6.09,0,0,1,7.63-.39l114.45,83.1.37.25c2.77,1.71,32.69,19.12,41.33-19.76l79-375.65c.11-1.19,1.18-14.27-8.17-22-9.82-8.08-23.72-4-25.81-3.56A6,6,0,0,0,477,43.86Z"/></symbol><symbol viewBox="0 0 64 64" id="svg-vk"><path d="M4,13.9c2.1,0,5.3,0,7.1,0c0.9,0,1.6,0.6,1.9,1.4c0.9,2.6,2.9,8.3,5.2,12.2c3.1,5.1,5.1,7,6.4,6.8 c1.3-0.3,0.9-3.7,0.9-6.4s0.3-7.3-1-9.4l-2-2.9c-0.5-0.7,0-1.6,0.8-1.6h11.4c1.1,0,2,0.9,2,2v14.5c0,0,0.5,2.6,3.3-0.1 c2.8-2.7,5.8-7.7,8.3-12.8l1-2.4c0.3-0.7,1-1.2,1.8-1.2h7.4c1.4,0,2.4,1.4,1.9,2.7l-0.8,2.1c0,0-2.7,5.4-5.5,9.2 c-2.8,3.9-3.4,4.8-3,5.8c0.4,1,7.6,7.7,9.4,10.9c0.5,0.9,0.9,1.7,1.3,2.4c0.7,1.3-0.3,3-1.8,3l-8.4,0c-0.7,0-1.4-0.4-1.7-1 l-0.8-1.3c0,0-5.1-6-8.2-7.9c-3.2-1.8-3.1,0.8-3.1,0.8v5.3c0,2.2-1.8,4-4,4h-2c0,0-11,0-19.8-13.1C5.1,26.7,2.8,20.1,2,16.3 C1.8,15.1,2.7,13.9,4,13.9z"/></symbol></svg>