<svg style="display: none;" aria-hidden="true" xmlns="http://www.w3.org/2000/svg" xmlns:xlink="http://www.w3.org/1999/xlink"><symbol viewBox="0 0 65 60" id="svg-benefits-icon"><path d="M22.496 59.678C21.928 59.678 21.428 59.27 21.33 58.692 21.108 57.388 20.789 56.046 20.382 54.699 20.053 53.944 16.678 46.29 14.031 43.005 12.484 41.085 11.964 38.742 12.525 36.231 12.972 34.233 14.129 32.246 15.617 30.916 18.361 28.466 24.478 28.106 29.58 31.803 33.368 34.549 45.044 30.712 46.803 29.312 47.017 29.142 47.363 28.808 47.287 28.474 47.205 28.119 46.676 27.638 45.708 27.421 45.156 27.298 44.286 27.319 43.368 27.341 40.951 27.398 36.911 27.493 36.787 23.659 36.731 21.979 37.433 21.008 38.031 20.488 39.539 19.176 41.826 19.403 42.417 19.488L47.458 19.439C47.901 19.434 48.315 19.38 48.689 19.279 49.414 19.084 49.841 18.819 50.337 18.513 51.147 18.012 52.065 17.444 53.959 17.444 55.041 17.444 60.488 17.96 61.558 28.126 62.372 35.864 62.034 40.663 61.989 41.232 61.992 41.486 62.052 43.682 63.416 46.137 64.605 48.283 65.454 51.522 64.669 53.926 64.284 55.102 63.539 55.974 62.513 56.447 60.724 57.273 59.398 56.934 58.601 56.505 57.939 56.149 57.398 55.572 57.034 54.84L54.352 49.431C54.344 49.415 54.329 49.383 54.271 49.379 54.209 49.376 54.191 49.404 54.181 49.419L50.297 55.022C49.352 56.071 46.958 57.666 44.659 56.188 42.118 54.556 42.29 51.344 43.222 49.585 43.827 48.443 47.703 41.107 47.703 41.107 47.922 40.663 48.029 40.049 47.952 39.895 47.482 39.713 45.481 40.275 44.286 40.611 43.338 40.878 42.356 41.154 41.455 41.321 40.316 41.532 38.566 41.756 36.253 41.986 35.909 42.02 35.742 42.252 35.687 42.35 35.621 42.468 35.528 42.707 35.662 42.993 37.134 46.13 38.995 50.8 39.509 55.236 39.624 56.234 39.707 57.144 39.763 58.016 39.805 58.668 39.309 59.231 38.657 59.273 38.008 59.31 37.442 58.82 37.399 58.167 37.346 57.335 37.267 56.465 37.157 55.508 36.655 51.173 34.663 46.438 33.519 44 33.097 43.1 33.137 42.046 33.628 41.182 34.124 40.31 35.018 39.73 36.02 39.631 38.236 39.409 39.966 39.19 41.026 38.993 41.822 38.846 42.75 38.585 43.648 38.333 45.942 37.687 47.924 37.132 49.177 37.878 50.667 38.766 50.569 40.686 49.809 42.194 49.799 42.215 45.921 49.553 45.316 50.695 45.057 51.183 44.404 53.21 45.94 54.196 47.018 54.889 48.252 53.73 48.496 53.482L52.233 48.074C52.734 47.348 53.557 46.957 54.442 47.016 55.323 47.08 56.084 47.589 56.475 48.379L59.156 53.787C59.298 54.074 59.501 54.299 59.725 54.42 60.193 54.674 60.798 54.631 61.521 54.297 61.946 54.101 62.239 53.738 62.417 53.191 62.891 51.743 62.44 49.259 61.345 47.287 59.574 44.096 59.619 41.27 59.622 41.152L59.626 41.078C59.631 41.03 60.027 36.203 59.204 28.375 58.328 20.053 54.405 19.813 53.961 19.813 52.739 19.813 52.279 20.096 51.584 20.527 51.041 20.863 50.365 21.281 49.308 21.566 48.74 21.719 48.126 21.8 47.483 21.807L42.235 21.858 42.129 21.838C41.687 21.765 40.258 21.686 39.583 22.277 39.47 22.377 39.125 22.677 39.154 23.58 39.192 24.764 40.049 25.05 43.312 24.973 44.381 24.948 45.39 24.924 46.224 25.11 47.992 25.505 49.284 26.59 49.594 27.943 49.864 29.111 49.383 30.285 48.278 31.165 46.409 32.653 33.368 37.472 28.19 33.721 24.235 30.855 19.221 30.873 17.196 32.682 13.848 35.674 14.428 39.725 15.876 41.521 18.85 45.212 22.432 53.472 22.583 53.822L22.628 53.946C23.075 55.41 23.423 56.875 23.665 58.299 23.774 58.944 23.341 59.554 22.696 59.664 22.629 59.672 22.561 59.678 22.496 59.678zM10.652 27.929C5.02199 27.929.442993 23.379.442993 17.785.442993 12.191 5.02199 7.63995 10.652 7.63995 16.281 7.63995 20.861 12.191 20.861 17.785 20.861 23.379 16.281 27.929 10.652 27.929zM10.652 10.009C6.32799 10.009 2.80999 13.497 2.80999 17.785 2.80999 22.073 6.32799 25.561 10.652 25.561 14.974 25.561 18.493 22.073 18.493 17.785 18.493 13.497 14.976 10.009 10.652 10.009zM53.163 15.194C48.991 15.194 45.598 11.82 45.598 7.67395 45.598 3.52795 48.992.152954 53.163.152954 57.336.152954 60.729 3.52695 60.729 7.67395 60.729 11.82 57.336 15.194 53.163 15.194zM53.163 2.52195C50.297 2.52195 47.965 4.83395 47.965 7.67395 47.965 10.514 50.297 12.825 53.163 12.825 56.029 12.825 58.361 10.513 58.361 7.67395 58.361 4.83395 56.029 2.52195 53.163 2.52195z"/></symbol><symbol viewBox="0 0 420 109" fill="none" id="svg-card-popular-background"><path d="M0 44.1996L102.243 15.2872V15.2872C204.487 -13.6257 240.072 49.6832 328.282 15.2872C408.674 -16.0607 418.713 9.7309 419.861 14.5485C419.979 15.043 420 15.5418 420 16.0502V94C420 102.284 413.284 109 405 109H0V109V44.1996Z" fill="#F09513"/></symbol><symbol viewBox="0 0 55 55" id="svg-number-01"><path d="M26.7109 44.5234C28.2148 42.3815 29.3542 40.0117 30.1289 37.4141C30.9036 34.8164 31.291 32.1276 31.291 29.3477C31.291 28.4362 31.2454 27.5475 31.1543 26.6816C31.1087 25.8158 30.9948 24.9499 30.8125 24.084C30.1745 20.8939 29.263 18.1139 28.0781 15.7441C26.9388 13.3288 25.7311 11.3236 24.4551 9.72852C23.179 8.08789 21.9714 6.85742 20.832 6.03711C19.6927 5.17122 18.8496 4.69271 18.3027 4.60156C18.1204 5.10286 17.8242 5.46745 17.4141 5.69531C17.0951 5.8776 16.776 5.96875 16.457 5.96875C16.1836 5.96875 15.9102 5.92318 15.6367 5.83203C15.3633 5.74089 15.0443 5.62695 14.6797 5.49023C14.4974 5.58138 14.224 5.62695 13.8594 5.62695C13.2214 5.62695 12.7428 5.39909 12.4238 4.94336C11.6491 5.44466 10.9199 6.19661 10.2363 7.19922C9.37044 8.38411 8.5957 9.84245 7.91211 11.5742C7.22852 13.2604 6.63607 15.1061 6.13477 17.1113C5.67904 19.071 5.31445 21.099 5.04102 23.1953C4.76758 25.2917 4.63086 27.3424 4.63086 29.3477C4.63086 30.487 4.65365 31.5807 4.69922 32.6289C4.79036 33.6771 4.94987 34.6797 5.17773 35.6367C5.63346 38.1888 6.4082 40.3307 7.50195 42.0625C8.5957 43.7943 9.80339 45.207 11.125 46.3008C12.4922 47.349 13.9049 48.1009 15.3633 48.5566C16.8672 49.0124 18.2572 49.2402 19.5332 49.2402C19.8066 49.2402 20.0573 49.2402 20.2852 49.2402C20.5586 49.2402 20.832 49.1947 21.1055 49.1035C21.7435 49.0124 22.5638 48.625 23.5664 47.9414C24.569 47.2122 25.6172 46.0729 26.7109 44.5234ZM17.9609 0.705078C19.1003 0.705078 20.4674 1.20638 22.0625 2.20898C23.6576 3.21159 25.2526 4.69271 26.8477 6.65234C28.4883 8.56641 30.015 10.9362 31.4277 13.7617C32.8405 16.5417 33.8887 19.7318 34.5723 23.332C34.9368 25.4284 35.1191 27.4336 35.1191 29.3477C35.1191 32.4922 34.6634 35.5684 33.752 38.5762C32.8861 41.5384 31.5872 44.25 29.8555 46.7109C28.625 48.4427 27.2806 49.8555 25.8223 50.9492C24.4095 52.043 23.0195 52.7038 21.6523 52.9316C21.2878 53.0228 20.9004 53.0684 20.4902 53.0684C20.1257 53.0684 19.7383 53.0684 19.3281 53.0684C17.4596 53.0684 15.5684 52.7266 13.6543 52.043C11.7402 51.3594 9.96289 50.334 8.32227 48.9668C6.68164 47.554 5.24609 45.8223 4.01562 43.7715C2.83073 41.6751 1.96484 39.2142 1.41797 36.3887C1.00781 34.2923 0.802734 31.9681 0.802734 29.416C0.802734 27.2285 0.939453 24.9727 1.21289 22.6484C1.5319 20.3242 1.96484 18.0911 2.51172 15.9492C3.05859 13.7617 3.7194 11.7337 4.49414 9.86523C5.26888 7.99674 6.13477 6.37891 7.0918 5.01172C8.77799 2.55078 10.7148 1.13802 12.9023 0.773438C13.0391 0.727865 13.1758 0.705078 13.3125 0.705078C13.4948 0.705078 13.6543 0.705078 13.791 0.705078C14.5658 0.705078 15.2266 0.841797 15.7734 1.11523C16.0469 1.02409 16.3203 0.955729 16.5938 0.910156C16.8672 0.864583 17.1634 0.81901 17.4824 0.773438L17.9609 0.705078ZM52.6191 26.4082C52.6191 27.2741 52.6647 28.5046 52.7559 30.0996C52.8926 31.6947 53.0293 33.4492 53.166 35.3633C53.3483 37.2318 53.5306 39.1686 53.7129 41.1738C53.8952 43.1335 54.0775 44.9336 54.2598 46.5742C54.4421 48.1693 54.5788 49.5137 54.6699 50.6074C54.8066 51.6556 54.875 52.2025 54.875 52.248C54.875 52.7493 54.6927 53.1595 54.3281 53.4785C54.0091 53.8431 53.5534 54.071 52.9609 54.1621C52.4596 54.1621 52.0267 54.0026 51.6621 53.6836C51.2975 53.3646 51.0924 52.9544 51.0469 52.4531C51.0013 52.3164 50.9102 51.7012 50.7734 50.6074C50.6823 49.5137 50.5456 48.1465 50.3633 46.5059C50.2266 44.8652 50.0671 43.0651 49.8848 41.1055C49.7025 39.1458 49.5202 37.2318 49.3379 35.3633C49.2012 33.4948 49.0645 31.763 48.9277 30.168C48.8366 28.5729 48.791 27.3197 48.791 26.4082C48.791 25.1777 48.7454 23.651 48.6543 21.8281C48.5632 20.0052 48.4492 18.1139 48.3125 16.1543C48.1758 14.1947 47.9935 12.2578 47.7656 10.3438C47.5833 8.42969 47.401 6.78906 47.2188 5.42188C46.3073 6.0599 45.4186 6.67513 44.5527 7.26758C43.7324 7.86003 43.0033 8.38411 42.3652 8.83984C41.7728 9.29557 41.2943 9.66016 40.9297 9.93359L40.3145 10.4121C39.9954 10.7311 39.6081 10.8906 39.1523 10.8906C38.5599 10.8906 38.0814 10.6628 37.7168 10.207C37.3978 9.88802 37.2383 9.47786 37.2383 8.97656C37.2383 8.42969 37.4206 7.97396 37.7852 7.60938C37.8307 7.5638 38.127 7.33594 38.6738 6.92578C39.2207 6.47005 39.9043 5.94596 40.7246 5.35352C41.5905 4.71549 42.5475 4.0319 43.5957 3.30273C44.6439 2.52799 45.7148 1.79883 46.8086 1.11523C47.1276 0.932943 47.4694 0.841797 47.834 0.841797C48.1986 0.841797 48.5632 0.955729 48.9277 1.18359C49.3379 1.22917 49.7025 1.38867 50.0215 1.66211C50.3405 1.93555 50.5456 2.27734 50.6367 2.6875C50.9102 3.96354 51.1608 5.67253 51.3887 7.81445C51.6165 9.91081 51.8216 12.1211 52.0039 14.4453C52.1862 16.7695 52.3229 19.0254 52.4141 21.2129C52.5508 23.3548 52.6191 25.0866 52.6191 26.4082Z"/></symbol><symbol viewBox="0 0 76 56" id="svg-number-02"><path d="M26.7109 45.5234C28.2148 43.3815 29.3542 41.0117 30.1289 38.4141C30.9036 35.8164 31.291 33.1276 31.291 30.3477C31.291 29.4362 31.2454 28.5475 31.1543 27.6816C31.1087 26.8158 30.9948 25.9499 30.8125 25.084C30.1745 21.8939 29.263 19.1139 28.0781 16.7441C26.9388 14.3288 25.7311 12.3236 24.4551 10.7285C23.179 9.08789 21.9714 7.85742 20.832 7.03711C19.6927 6.17122 18.8496 5.69271 18.3027 5.60156C18.1204 6.10286 17.8242 6.46745 17.4141 6.69531C17.0951 6.8776 16.776 6.96875 16.457 6.96875C16.1836 6.96875 15.9102 6.92318 15.6367 6.83203C15.3633 6.74089 15.0443 6.62695 14.6797 6.49023C14.4974 6.58138 14.224 6.62695 13.8594 6.62695C13.2214 6.62695 12.7428 6.39909 12.4238 5.94336C11.6491 6.44466 10.9199 7.19661 10.2363 8.19922C9.37044 9.38411 8.5957 10.8424 7.91211 12.5742C7.22852 14.2604 6.63607 16.1061 6.13477 18.1113C5.67904 20.071 5.31445 22.099 5.04102 24.1953C4.76758 26.2917 4.63086 28.3424 4.63086 30.3477C4.63086 31.487 4.65365 32.5807 4.69922 33.6289C4.79036 34.6771 4.94987 35.6797 5.17773 36.6367C5.63346 39.1888 6.4082 41.3307 7.50195 43.0625C8.5957 44.7943 9.80339 46.207 11.125 47.3008C12.4922 48.349 13.9049 49.1009 15.3633 49.5566C16.8672 50.0124 18.2572 50.2402 19.5332 50.2402C19.8066 50.2402 20.0573 50.2402 20.2852 50.2402C20.5586 50.2402 20.832 50.1947 21.1055 50.1035C21.7435 50.0124 22.5638 49.625 23.5664 48.9414C24.569 48.2122 25.6172 47.0729 26.7109 45.5234ZM17.9609 1.70508C19.1003 1.70508 20.4674 2.20638 22.0625 3.20898C23.6576 4.21159 25.2526 5.69271 26.8477 7.65234C28.4883 9.56641 30.015 11.9362 31.4277 14.7617C32.8405 17.5417 33.8887 20.7318 34.5723 24.332C34.9368 26.4284 35.1191 28.4336 35.1191 30.3477C35.1191 33.4922 34.6634 36.5684 33.752 39.5762C32.8861 42.5384 31.5872 45.25 29.8555 47.7109C28.625 49.4427 27.2806 50.8555 25.8223 51.9492C24.4095 53.043 23.0195 53.7038 21.6523 53.9316C21.2878 54.0228 20.9004 54.0684 20.4902 54.0684C20.1257 54.0684 19.7383 54.0684 19.3281 54.0684C17.4596 54.0684 15.5684 53.7266 13.6543 53.043C11.7402 52.3594 9.96289 51.334 8.32227 49.9668C6.68164 48.554 5.24609 46.8223 4.01562 44.7715C2.83073 42.6751 1.96484 40.2142 1.41797 37.3887C1.00781 35.2923 0.802734 32.9681 0.802734 30.416C0.802734 28.2285 0.939453 25.9727 1.21289 23.6484C1.5319 21.3242 1.96484 19.0911 2.51172 16.9492C3.05859 14.7617 3.7194 12.7337 4.49414 10.8652C5.26888 8.99674 6.13477 7.37891 7.0918 6.01172C8.77799 3.55078 10.7148 2.13802 12.9023 1.77344C13.0391 1.72786 13.1758 1.70508 13.3125 1.70508C13.4948 1.70508 13.6543 1.70508 13.791 1.70508C14.5658 1.70508 15.2266 1.8418 15.7734 2.11523C16.0469 2.02409 16.3203 1.95573 16.5938 1.91016C16.8672 1.86458 17.1634 1.81901 17.4824 1.77344L17.9609 1.70508ZM74.0156 51.6758C75.0182 51.9036 75.5195 52.6784 75.5195 54C75.4284 54.4557 75.1777 54.8203 74.7676 55.0938C74.3574 55.3672 73.8333 55.4811 73.1953 55.4355C72.2839 55.2988 71.2357 55.1393 70.0508 54.957C69.0482 54.8203 67.8177 54.6836 66.3594 54.5469C64.9466 54.4557 63.3743 54.3874 61.6426 54.3418H60.6855C58.9538 54.3418 57.1992 54.3874 55.4219 54.4785C53.6445 54.6152 52.0267 54.752 50.5684 54.8887C49.1556 55.0254 47.9707 55.1393 47.0137 55.2305C46.0566 55.3672 45.5326 55.4355 45.4414 55.4355C45.3047 55.4355 45.1452 55.4128 44.9629 55.3672C44.8262 55.3672 44.5299 55.3672 44.0742 55.3672C43.5273 55.3672 43.0716 55.1621 42.707 54.752C42.3424 54.3874 42.1602 53.9544 42.1602 53.4531C42.2057 49.625 42.7298 46.3893 43.7324 43.7461C44.7806 41.1029 46.3984 38.6875 48.5859 36.5C49.9076 35.1784 51.3659 33.9935 52.9609 32.9453C54.556 31.8516 56.151 30.7806 57.7461 29.7324C59.1589 28.8665 60.526 28.0007 61.8477 27.1348C63.1693 26.2233 64.3314 25.2891 65.334 24.332C66.3366 23.375 67.1341 22.3724 67.7266 21.3242C68.3646 20.2305 68.6836 19.0684 68.6836 17.8379C68.6836 16.4707 68.6152 15.1947 68.4785 14.0098C68.3418 12.7793 68.0228 11.64 67.5215 10.5918C67.0202 9.54362 66.2682 8.60938 65.2656 7.78906C64.263 6.96875 62.873 6.23958 61.0957 5.60156C60.0931 5.23698 59.2044 4.98633 58.4297 4.84961C57.7005 4.66732 56.9941 4.57617 56.3105 4.57617C55.3535 4.57617 54.3509 4.71289 53.3027 4.98633C52.2546 5.25977 50.9329 5.64714 49.3379 6.14844C48.1986 6.51302 47.2415 7.08268 46.4668 7.85742C45.6921 8.58659 45.054 9.33854 44.5527 10.1133C43.9603 11.0247 43.459 12.0046 43.0488 13.0527C42.7298 13.9642 41.9323 14.3971 40.6562 14.3516C40.2461 14.2148 39.9043 13.9642 39.6309 13.5996C39.403 13.1895 39.3346 12.6426 39.4258 11.959C39.4258 11.8678 39.5853 11.4121 39.9043 10.5918C40.2233 9.77148 40.7246 8.86003 41.4082 7.85742C42.1374 6.80924 43.0716 5.78385 44.2109 4.78125C45.3503 3.73307 46.7402 2.95833 48.3809 2.45703C49.9759 1.95573 51.3887 1.56836 52.6191 1.29492C53.8496 0.975911 55.0801 0.816406 56.3105 0.816406C57.1764 0.816406 58.0879 0.907552 59.0449 1.08984C60.0475 1.27214 61.1641 1.56836 62.3945 1.97852C64.901 2.8444 66.8379 3.96094 68.2051 5.32812C69.6178 6.64974 70.6204 8.03971 71.2129 9.49805C71.8509 10.9564 72.2155 12.4375 72.3066 13.9414C72.4434 15.3997 72.5117 16.6986 72.5117 17.8379C72.5117 19.6152 72.1471 21.2103 71.418 22.623C70.6888 24.0358 69.709 25.3574 68.4785 26.5879C67.2936 27.7728 65.9264 28.8893 64.377 29.9375C62.873 30.9401 61.3464 31.9427 59.7969 32.9453C58.293 33.9479 56.7891 34.9505 55.2852 35.9531C53.7812 36.9557 52.4368 38.0495 51.252 39.2344C49.6113 40.8294 48.3809 42.584 47.5605 44.498C46.7402 46.4121 46.2389 48.7363 46.0566 51.4707C46.6491 51.4251 47.4694 51.3568 48.5176 51.2656C49.5658 51.1289 50.7507 51.015 52.0723 50.9238C53.3939 50.7871 54.7839 50.696 56.2422 50.6504C57.7461 50.5592 59.25 50.5137 60.7539 50.5137H61.7109C65.4479 50.6048 68.4102 50.8327 70.5977 51.1973C72.7852 51.5163 73.9245 51.6758 74.0156 51.6758Z"/></symbol><symbol viewBox="0 0 76 55" id="svg-number-03"><path d="M26.7109 44.5234C28.2148 42.3815 29.3542 40.0117 30.1289 37.4141C30.9036 34.8164 31.291 32.1276 31.291 29.3477C31.291 28.4362 31.2454 27.5475 31.1543 26.6816C31.1087 25.8158 30.9948 24.9499 30.8125 24.084C30.1745 20.8939 29.263 18.1139 28.0781 15.7441C26.9388 13.3288 25.7311 11.3236 24.4551 9.72852C23.179 8.08789 21.9714 6.85742 20.832 6.03711C19.6927 5.17122 18.8496 4.69271 18.3027 4.60156C18.1204 5.10286 17.8242 5.46745 17.4141 5.69531C17.0951 5.8776 16.776 5.96875 16.457 5.96875C16.1836 5.96875 15.9102 5.92318 15.6367 5.83203C15.3633 5.74089 15.0443 5.62695 14.6797 5.49023C14.4974 5.58138 14.224 5.62695 13.8594 5.62695C13.2214 5.62695 12.7428 5.39909 12.4238 4.94336C11.6491 5.44466 10.9199 6.19661 10.2363 7.19922C9.37044 8.38411 8.5957 9.84245 7.91211 11.5742C7.22852 13.2604 6.63607 15.1061 6.13477 17.1113C5.67904 19.071 5.31445 21.099 5.04102 23.1953C4.76758 25.2917 4.63086 27.3424 4.63086 29.3477C4.63086 30.487 4.65365 31.5807 4.69922 32.6289C4.79036 33.6771 4.94987 34.6797 5.17773 35.6367C5.63346 38.1888 6.4082 40.3307 7.50195 42.0625C8.5957 43.7943 9.80339 45.207 11.125 46.3008C12.4922 47.349 13.9049 48.1009 15.3633 48.5566C16.8672 49.0124 18.2572 49.2402 19.5332 49.2402C19.8066 49.2402 20.0573 49.2402 20.2852 49.2402C20.5586 49.2402 20.832 49.1947 21.1055 49.1035C21.7435 49.0124 22.5638 48.625 23.5664 47.9414C24.569 47.2122 25.6172 46.0729 26.7109 44.5234ZM17.9609 0.705078C19.1003 0.705078 20.4674 1.20638 22.0625 2.20898C23.6576 3.21159 25.2526 4.69271 26.8477 6.65234C28.4883 8.56641 30.015 10.9362 31.4277 13.7617C32.8405 16.5417 33.8887 19.7318 34.5723 23.332C34.9368 25.4284 35.1191 27.4336 35.1191 29.3477C35.1191 32.4922 34.6634 35.5684 33.752 38.5762C32.8861 41.5384 31.5872 44.25 29.8555 46.7109C28.625 48.4427 27.2806 49.8555 25.8223 50.9492C24.4095 52.043 23.0195 52.7038 21.6523 52.9316C21.2878 53.0228 20.9004 53.0684 20.4902 53.0684C20.1257 53.0684 19.7383 53.0684 19.3281 53.0684C17.4596 53.0684 15.5684 52.7266 13.6543 52.043C11.7402 51.3594 9.96289 50.334 8.32227 48.9668C6.68164 47.554 5.24609 45.8223 4.01562 43.7715C2.83073 41.6751 1.96484 39.2142 1.41797 36.3887C1.00781 34.2923 0.802734 31.9681 0.802734 29.416C0.802734 27.2285 0.939453 24.9727 1.21289 22.6484C1.5319 20.3242 1.96484 18.0911 2.51172 15.9492C3.05859 13.7617 3.7194 11.7337 4.49414 9.86523C5.26888 7.99674 6.13477 6.37891 7.0918 5.01172C8.77799 2.55078 10.7148 1.13802 12.9023 0.773438C13.0391 0.727865 13.1758 0.705078 13.3125 0.705078C13.4948 0.705078 13.6543 0.705078 13.791 0.705078C14.5658 0.705078 15.2266 0.841797 15.7734 1.11523C16.0469 1.02409 16.3203 0.955729 16.5938 0.910156C16.8672 0.864583 17.1634 0.81901 17.4824 0.773438L17.9609 0.705078ZM58.7031 19.1621C60.1615 19.39 61.4831 19.7546 62.668 20.2559C63.8984 20.7116 65.015 21.2585 66.0176 21.8965C67.0202 22.4889 67.9089 23.127 68.6836 23.8105C69.5039 24.4941 70.2103 25.1777 70.8027 25.8613C72.6257 27.8665 73.9245 29.9401 74.6992 32.082C75.5195 34.224 75.9297 36.0241 75.9297 37.4824V38.3027L75.793 39.3281C75.6562 40.513 75.474 41.7891 75.2461 43.1562C75.0182 44.4779 74.5169 45.7767 73.7422 47.0527C72.9674 48.3288 71.8281 49.5365 70.3242 50.6758C68.8659 51.7695 66.8379 52.681 64.2402 53.4102C62.9186 53.7747 61.7109 54.0254 60.6172 54.1621C59.569 54.3444 58.5892 54.4355 57.6777 54.4355C56.265 54.4355 54.8522 54.276 53.4395 53.957C52.0723 53.638 50.4316 53.2279 48.5176 52.7266C46.7402 52.2708 45.2135 51.5417 43.9375 50.5391C42.707 49.5365 41.7044 48.5111 40.9297 47.4629C40.1549 46.4147 39.5853 45.4577 39.2207 44.5918C38.8561 43.6803 38.651 43.1107 38.6055 42.8828C38.6055 42.4727 38.7422 42.1081 39.0156 41.7891C39.2891 41.4701 39.7904 41.1966 40.5195 40.9688C40.9297 40.9688 41.2943 41.0827 41.6133 41.3105C41.9779 41.5384 42.2285 41.8574 42.3652 42.2676C42.7754 43.3158 43.3223 44.2728 44.0059 45.1387C44.5983 45.9134 45.3503 46.6882 46.2617 47.4629C47.2188 48.1921 48.3581 48.7389 49.6797 49.1035C51.457 49.6048 52.9382 49.9922 54.123 50.2656C55.3079 50.4935 56.4928 50.6074 57.6777 50.6074C59.1816 50.6074 61.0273 50.3112 63.2148 49.7188C65.1745 49.1719 66.7012 48.5111 67.7949 47.7363C68.9342 46.9616 69.7773 46.1185 70.3242 45.207C70.9167 44.25 71.304 43.2474 71.4863 42.1992C71.6686 41.1055 71.8281 40.0117 71.9648 38.918L72.1016 37.4824C72.1016 36.4798 71.7826 35.1354 71.1445 33.4492C70.5065 31.763 69.4355 30.0996 67.9316 28.459C67.3392 27.7754 66.6328 27.0918 65.8125 26.4082C65.0378 25.7246 64.1035 25.1094 63.0098 24.5625C61.9616 24.0156 60.7767 23.5827 59.4551 23.2637C58.1335 22.8991 56.6523 22.7168 55.0117 22.7168C54.9206 22.7168 54.8066 22.694 54.6699 22.6484C54.5332 22.6029 54.2826 22.4889 53.918 22.3066L53.3711 21.8281C53.3711 21.7826 53.3483 21.737 53.3027 21.6914C53.3027 21.6003 53.2572 21.418 53.166 21.1445C53.1204 21.099 53.0977 21.0534 53.0977 21.0078C53.0977 20.9167 53.1204 20.7116 53.166 20.3926C53.166 20.347 53.166 20.3014 53.166 20.2559C53.2116 20.1647 53.3255 19.9596 53.5078 19.6406C54.1458 18.7747 54.875 17.7949 55.6953 16.7012C56.5612 15.6074 57.4727 14.4681 58.4297 13.2832C59.5234 11.9616 60.6172 10.6172 61.7109 9.25C62.8047 7.83724 63.7617 6.5612 64.582 5.42188C63.625 5.33073 62.5085 5.26237 61.2324 5.2168C60.002 5.12565 58.6348 5.08008 57.1309 5.08008C55.3535 5.08008 53.5306 5.14844 51.6621 5.28516C49.7936 5.42188 48.0618 5.55859 46.4668 5.69531C44.9173 5.83203 43.6185 5.96875 42.5703 6.10547C41.5677 6.24219 41.0208 6.31055 40.9297 6.31055C40.4284 6.31055 39.9954 6.15104 39.6309 5.83203C39.3118 5.51302 39.1068 5.03451 39.0156 4.39648C39.0156 3.89518 39.1523 3.48503 39.4258 3.16602C39.7448 2.84701 40.1549 2.64193 40.6562 2.55078C40.7474 2.55078 41.2943 2.48242 42.2969 2.3457C43.3451 2.20898 44.6439 2.07227 46.1934 1.93555C47.7884 1.75326 49.543 1.59375 51.457 1.45703C53.3711 1.32031 55.2624 1.25195 57.1309 1.25195C59.3639 1.25195 61.3236 1.32031 63.0098 1.45703C64.7415 1.59375 66.1315 1.73047 67.1797 1.86719C67.4531 1.63932 67.8177 1.52539 68.2734 1.52539C68.5469 1.52539 68.8659 1.59375 69.2305 1.73047C69.3216 1.82161 69.4128 1.91276 69.5039 2.00391C69.6406 2.09505 69.7546 2.20898 69.8457 2.3457C70.6204 2.66471 71.0078 3.37109 71.0078 4.46484C70.7799 5.46745 70.0736 5.96875 68.8887 5.96875C68.0684 7.19922 66.9746 8.68034 65.6074 10.4121C64.2858 12.1439 62.8958 13.8984 61.4375 15.6758C60.9362 16.3138 60.4577 16.929 60.002 17.5215C59.5462 18.0684 59.1133 18.6152 58.7031 19.1621Z"/></symbol><symbol viewBox="0 0 74 55" id="svg-number-04"><path d="M26.7109 44.5234C28.2148 42.3815 29.3542 40.0117 30.1289 37.4141C30.9036 34.8164 31.291 32.1276 31.291 29.3477C31.291 28.4362 31.2454 27.5475 31.1543 26.6816C31.1087 25.8158 30.9948 24.9499 30.8125 24.084C30.1745 20.8939 29.263 18.1139 28.0781 15.7441C26.9388 13.3288 25.7311 11.3236 24.4551 9.72852C23.179 8.08789 21.9714 6.85742 20.832 6.03711C19.6927 5.17122 18.8496 4.69271 18.3027 4.60156C18.1204 5.10286 17.8242 5.46745 17.4141 5.69531C17.0951 5.8776 16.776 5.96875 16.457 5.96875C16.1836 5.96875 15.9102 5.92318 15.6367 5.83203C15.3633 5.74089 15.0443 5.62695 14.6797 5.49023C14.4974 5.58138 14.224 5.62695 13.8594 5.62695C13.2214 5.62695 12.7428 5.39909 12.4238 4.94336C11.6491 5.44466 10.9199 6.19661 10.2363 7.19922C9.37044 8.38411 8.5957 9.84245 7.91211 11.5742C7.22852 13.2604 6.63607 15.1061 6.13477 17.1113C5.67904 19.071 5.31445 21.099 5.04102 23.1953C4.76758 25.2917 4.63086 27.3424 4.63086 29.3477C4.63086 30.487 4.65365 31.5807 4.69922 32.6289C4.79036 33.6771 4.94987 34.6797 5.17773 35.6367C5.63346 38.1888 6.4082 40.3307 7.50195 42.0625C8.5957 43.7943 9.80339 45.207 11.125 46.3008C12.4922 47.349 13.9049 48.1009 15.3633 48.5566C16.8672 49.0124 18.2572 49.2402 19.5332 49.2402C19.8066 49.2402 20.0573 49.2402 20.2852 49.2402C20.5586 49.2402 20.832 49.1947 21.1055 49.1035C21.7435 49.0124 22.5638 48.625 23.5664 47.9414C24.569 47.2122 25.6172 46.0729 26.7109 44.5234ZM17.9609 0.705078C19.1003 0.705078 20.4674 1.20638 22.0625 2.20898C23.6576 3.21159 25.2526 4.69271 26.8477 6.65234C28.4883 8.56641 30.015 10.9362 31.4277 13.7617C32.8405 16.5417 33.8887 19.7318 34.5723 23.332C34.9368 25.4284 35.1191 27.4336 35.1191 29.3477C35.1191 32.4922 34.6634 35.5684 33.752 38.5762C32.8861 41.5384 31.5872 44.25 29.8555 46.7109C28.625 48.4427 27.2806 49.8555 25.8223 50.9492C24.4095 52.043 23.0195 52.7038 21.6523 52.9316C21.2878 53.0228 20.9004 53.0684 20.4902 53.0684C20.1257 53.0684 19.7383 53.0684 19.3281 53.0684C17.4596 53.0684 15.5684 52.7266 13.6543 52.043C11.7402 51.3594 9.96289 50.334 8.32227 48.9668C6.68164 47.554 5.24609 45.8223 4.01562 43.7715C2.83073 41.6751 1.96484 39.2142 1.41797 36.3887C1.00781 34.2923 0.802734 31.9681 0.802734 29.416C0.802734 27.2285 0.939453 24.9727 1.21289 22.6484C1.5319 20.3242 1.96484 18.0911 2.51172 15.9492C3.05859 13.7617 3.7194 11.7337 4.49414 9.86523C5.26888 7.99674 6.13477 6.37891 7.0918 5.01172C8.77799 2.55078 10.7148 1.13802 12.9023 0.773438C13.0391 0.727865 13.1758 0.705078 13.3125 0.705078C13.4948 0.705078 13.6543 0.705078 13.791 0.705078C14.5658 0.705078 15.2266 0.841797 15.7734 1.11523C16.0469 1.02409 16.3203 0.955729 16.5938 0.910156C16.8672 0.864583 17.1634 0.81901 17.4824 0.773438L17.9609 0.705078ZM72.2383 30.2363C73.2409 30.4642 73.7422 31.2161 73.7422 32.4922C73.5143 33.4948 72.7624 33.9961 71.4863 33.9961C71.4408 33.9961 71.2129 33.9505 70.8027 33.8594C70.3926 33.7682 69.8001 33.6771 69.0254 33.5859C69.1621 35.5456 69.3216 37.6191 69.5039 39.8066C69.7318 41.9486 69.9368 43.931 70.1191 45.7539C70.3014 47.5312 70.4609 49.0352 70.5977 50.2656C70.7344 51.4961 70.8027 52.1569 70.8027 52.248C70.8027 52.7493 70.6432 53.1595 70.3242 53.4785C70.0052 53.8431 69.5267 54.071 68.8887 54.1621C68.3874 54.1621 67.9544 54.0026 67.5898 53.6836C67.2708 53.3646 67.0885 52.9544 67.043 52.4531C67.043 52.3164 66.9746 51.61 66.8379 50.334C66.7012 49.0124 66.5189 47.4173 66.291 45.5488C66.1087 43.6803 65.9036 41.6523 65.6758 39.4648C65.4935 37.2773 65.3112 35.2038 65.1289 33.2441C64.3542 33.1986 63.5339 33.153 62.668 33.1074C61.8021 33.0618 60.8678 33.0391 59.8652 33.0391C58.0879 33.0391 56.265 33.1074 54.3965 33.2441C52.528 33.3809 50.7962 33.5404 49.2012 33.7227C47.6517 33.8594 46.3529 33.9961 45.3047 34.1328C44.2565 34.2695 43.6641 34.3379 43.5273 34.3379C42.9805 34.3379 42.5247 34.1556 42.1602 33.791C41.7956 33.4264 41.6133 32.9707 41.6133 32.4238C41.6133 31.0111 41.5449 29.2337 41.4082 27.0918C41.3171 24.9499 41.1803 22.7624 40.998 20.5293C40.8158 18.2507 40.6107 16.0859 40.3828 14.0352C40.1549 11.9844 39.9271 10.3438 39.6992 9.11328C39.6992 8.11068 40.3372 7.47266 41.6133 7.19922C42.069 7.19922 42.4564 7.35872 42.7754 7.67773C43.14 7.95117 43.3678 8.31576 43.459 8.77148C43.6868 9.86523 43.8919 11.3236 44.0742 13.1465C44.3021 14.9694 44.4844 16.9062 44.6211 18.957C44.8034 20.9622 44.9629 22.9674 45.0996 24.9727C45.2363 26.9779 45.3275 28.7552 45.373 30.3047C46.1478 30.2135 47.082 30.0996 48.1758 29.9629C49.2695 29.8262 50.4544 29.7122 51.7305 29.6211C53.0521 29.4844 54.3965 29.3932 55.7637 29.3477C57.1764 29.2565 58.5436 29.2109 59.8652 29.2109C61.7337 29.2109 63.3971 29.2793 64.8555 29.416C64.8099 28.778 64.7871 28.2083 64.7871 27.707C64.7871 27.2057 64.7871 26.7728 64.7871 26.4082C64.7871 24.9954 64.7188 23.2181 64.582 21.0762C64.4909 18.9342 64.3542 16.7467 64.1719 14.5137C63.9896 12.235 63.7845 10.0703 63.5566 8.01953C63.3288 5.96875 63.1009 4.32812 62.873 3.09766C62.873 2.64193 63.0326 2.23177 63.3516 1.86719C63.6706 1.5026 64.1491 1.27474 64.7871 1.18359C65.2428 1.18359 65.6302 1.32031 65.9492 1.59375C66.3138 1.86719 66.5417 2.23177 66.6328 2.6875C66.9062 3.96354 67.1569 5.67253 67.3848 7.81445C67.6126 9.91081 67.8177 12.1211 68 14.4453C68.1823 16.7695 68.319 19.0254 68.4102 21.2129C68.5469 23.3548 68.6152 25.0866 68.6152 26.4082C68.6152 26.7728 68.6152 27.2513 68.6152 27.8438C68.6608 28.3906 68.7064 29.0059 68.752 29.6895C69.8001 29.8262 70.6204 29.9629 71.2129 30.0996C71.8053 30.1908 72.1471 30.2363 72.2383 30.2363Z"/></symbol><symbol viewBox="0 0 72 60" id="svg-services-icon"><path d="M1.29202 49.6851C.96102 49.6851.632019 49.5471.398019 49.2771-.029981 48.7841.0230184 48.0371.517018 47.6091.863018 47.3101 9.11702 40.2681 20.058 40.2681 27.209 40.2681 31.38 42.0891 35.414 43.8511 39.499 45.6351 43.359 47.3211 50.355 47.3211 64.009 47.3211 69.748 40.7521 69.804 40.6851 70.227 40.1871 70.973 40.1271 71.471 40.5491 71.969 40.9721 72.03 41.7181 71.607 42.2161 71.348 42.5211 65.091 49.6861 50.356 49.6861 42.866 49.6861 38.596 47.8221 34.468 46.0181 30.481 44.2781 26.715 42.6331 20.059 42.6331 9.99002 42.6331 2.14402 49.3291 2.06602 49.3971 1.84302 49.5901 1.56702 49.6851 1.29202 49.6851zM50.356 59.762C42.8671 59.762 38.597 57.898 34.469 56.094 30.482 54.353 26.716 52.708 20.059 52.708 15.157 52.708 10.204 54.168 7.44105 56.428 6.93505 56.842 6.19004 56.766 5.77704 56.261 5.36404 55.755 5.43804 55.011 5.94404 54.597 9.15304 51.974 14.561 50.343 20.059 50.343 27.21 50.343 31.381 52.165 35.415 53.926 39.5 55.711 43.3601 57.397 50.356 57.397 57.529 57.397 62.473 55.555 65.359 54.01 65.935 53.701 66.6521 53.918 66.9601 54.494 67.2691 55.069 67.052 55.786 66.476 56.095 63.353 57.768 58.0201 59.762 50.356 59.762zM24.084 19.8959C24.083 19.8959 24.084 19.8959 24.084 19.8959 23.325 19.8959 22.572 19.7739 21.848 19.5339 20.048 18.9339 18.594 17.6749 17.75 15.9839 16.911 14.3009 16.778 12.3919 17.377 10.6099 18.347 7.72987 21.044 5.79688 24.088 5.79688 24.85 5.79688 25.607 5.91987 26.334 6.16287 28.133 6.76087 29.588 8.02187 30.432 9.71487 31.271 11.3969 31.402 13.3039 30.802 15.0829 29.837 17.9609 27.137 19.8959 24.084 19.8959zM24.088 8.16187C22.06 8.16187 20.264 9.44887 19.618 11.3639 19.222 12.5459 19.309 13.8119 19.867 14.9279 20.427 16.0519 21.394 16.8909 22.593 17.2879 23.075 17.4479 23.578 17.5299 24.083 17.5299H24.084C26.119 17.5299 27.918 16.2439 28.561 14.3289 28.958 13.1479 28.872 11.8839 28.315 10.7679 27.754 9.64288 26.786 8.80387 25.587 8.40587 25.1 8.24387 24.595 8.16187 24.088 8.16187z"/><path d="M8.79701 39.882L11.688 26.965C12.1 25.12 11.735 23.157 10.686 21.58L7.37801 16.614C6.93201 15.926 6.74101 15.121 6.83201 14.33L8.16701 3.04397C8.36701 1.32897 9.92901.061972 11.696.258972 13.312.446972 14.523 1.80697 14.516 3.42497 14.533 6.85197 14.604 12.623 14.726 13.475 14.848 14.325 17.338 18.768 19.927 20.187 20.387 20.44 22.222 21.027 29.312 21.027 35.097 21.027 41.255 20.632 41.316 20.629L41.378 20.625 41.441 20.627C42.432 20.669 43.345 21.093 44.013 21.82 44.671 22.539 45.01 23.469 44.967 24.44 44.896 26.329 43.347 27.877 41.441 27.956L31.846 28.312C29.557 28.397 27.614 30.009 27.12 32.232L25.828 38.062 24.696 37.84C23.374 37.581 21.972 37.45 20.532 37.45 16.659 37.45 13.1 38.397 10.797 39.191L8.79701 39.882zM11.337 2.60397C10.917 2.60397 10.564 2.91197 10.516 3.31997L9.18101 14.605C9.16101 14.775 9.17501 15.041 9.35201 15.314L12.655 20.27C14.059 22.381 14.549 25.01 13.996 27.482L12.015 36.335C14.35 35.677 17.335 35.086 20.536 35.086 21.724 35.086 22.889 35.168 24.015 35.328L24.815 31.721C25.541 28.448 28.397 26.075 31.761 25.95L41.351 25.594C42.028 25.566 42.581 25.016 42.608 24.344 42.624 23.997 42.504 23.672 42.273 23.42 42.045 23.171 41.736 23.022 41.397 22.994 40.679 23.039 34.831 23.392 29.314 23.392 21.73 23.392 19.676 22.747 18.793 22.262 15.537 20.476 12.617 15.411 12.388 13.813 12.2 12.519 12.159 4.35397 12.155 3.42597 12.156 3.00397 11.844 2.65697 11.43 2.60897 11.401 2.60497 11.369 2.60397 11.337 2.60397zM55.387 30.3459C52.851 30.3459 50.601 28.7349 49.788 26.3369 49.287 24.8439 49.399 23.2499 50.1 21.8459 50.803 20.4379 52.015 19.3869 53.511 18.8899 54.12 18.6879 54.75 18.5859 55.384 18.5859 57.924 18.5859 60.175 20.1989 60.986 22.5999 61.485 24.0939 61.372 25.6879 60.669 27.0909 59.965 28.4969 58.754 29.5449 57.256 30.0409 56.65 30.2429 56.021 30.3459 55.387 30.3459zM55.385 20.9509C55.003 20.9509 54.624 21.0129 54.257 21.1339 53.362 21.4319 52.638 22.0599 52.216 22.9029 51.798 23.7409 51.732 24.6929 52.028 25.5819 52.513 27.0149 53.864 27.9799 55.386 27.9799 55.766 27.9799 56.145 27.9179 56.51 27.7969 57.407 27.4989 58.133 26.8729 58.554 26.0319 58.973 25.1939 59.04 24.2419 58.743 23.3519 58.26 21.9169 56.909 20.9509 55.385 20.9509z"/><path d="M53.968 45.266L52.853 40.236C52.517 38.715 51.187 37.613 49.621 37.555L41.683 37.261C40.034 37.203 38.686 35.867 38.616 34.222C38.584 33.365 38.887 32.554 39.47 31.932C40.049 31.315 40.835 30.956 41.684 30.926L41.744 30.923L41.804 30.927C41.854 30.93 46.751 31.242 51.362 31.242C57.168 31.242 58.523 30.747 58.8 30.596C60.783 29.507 62.712 26.098 62.833 25.41C62.934 24.726 62.987 20.123 62.999 17.379C62.999 15.965 64.062 14.778 65.473 14.623C65.574 14.61 65.686 14.604 65.797 14.604C67.201 14.604 68.389 15.656 68.559 17.052L69.622 26.087C69.707 26.78 69.538 27.486 69.148 28.071L66.213 32.478C65.591 33.411 65.374 34.573 65.618 35.665L66.538 39.775L66.221 40.209C63.891 43.39 55.982 44.899 55.088 45.062L53.968 45.266ZM41.723 33.292C41.519 33.311 41.332 33.401 41.193 33.55C41.047 33.707 40.969 33.912 40.977 34.126C40.995 34.542 41.342 34.882 41.767 34.897L49.706 35.19C52.35 35.288 54.593 37.151 55.162 39.723L55.779 42.509C58.603 41.883 62.467 40.643 63.98 39.185L63.308 36.182C62.924 34.463 63.264 32.635 64.242 31.168L67.177 26.761C67.278 26.612 67.283 26.465 67.272 26.368L66.209 17.333C66.182 17.11 65.971 16.943 65.743 16.972C65.523 16.996 65.361 17.176 65.361 17.383C65.356 18.601 65.325 24.704 65.173 25.743C64.998 27.039 62.62 31.195 59.935 32.668C59.199 33.071 57.51 33.606 51.36 33.606C46.982 33.607 42.358 33.331 41.723 33.292Z"/></symbol><symbol viewBox="0 0 512 512" id="svg-telegram"><path d="M477,43.86,13.32,223.29a5.86,5.86,0,0,0-.8.38c-3.76,2.13-30,18.18,7,32.57l.38.14,110.41,35.67a6.08,6.08,0,0,0,5.09-.62L409.25,120.57a6,6,0,0,1,2.2-.83c3.81-.63,14.78-1.81,7.84,7-7.85,10-194.9,177.62-215.66,196.21a6.3,6.3,0,0,0-2.07,4.17l-9.06,108a7.08,7.08,0,0,0,2.83,5.67,6.88,6.88,0,0,0,8.17-.62l65.6-58.63a6.09,6.09,0,0,1,7.63-.39l114.45,83.1.37.25c2.77,1.71,32.69,19.12,41.33-19.76l79-375.65c.11-1.19,1.18-14.27-8.17-22-9.82-8.08-23.72-4-25.81-3.56A6,6,0,0,0,477,43.86Z"/></symbol><symbol viewBox="0 0 64 64" id="svg-vk"><path d="M4,13.9c2.1,0,5.3,0,7.1,0c0.9,0,1.6,0.6,1.9,1.4c0.9,2.6,2.9,8.3,5.2,12.2c3.1,5.1,5.1,7,6.4,6.8 c1.3-0.3,0.9-3.7,0.9-6.4s0.3-7.3-1-9.4l-2-2.9c-0.5-0.7,0-1.6,0.8-1.6h11.4c1.1,0,2,0.9,2,2v14.5c0,0,0.5,2.6,3.3-0.1 c2.8-2.7,5.8-7.7,8.3-12.8l1-2.4c0.3-0.7,1-1.2,1.8-1.2h7.4c1.4,0,2.4,1.4,1.9,2.7l-0.8,2.1c0,0-2.7,5.4-5.5,9.2 c-2.8,3.9-3.4,4.8-3,5.8c0.4,1,7.6,7.7,9.4,10.9c0.5,0.9,0.9,1.7,1.3,2.4c0.7,1.3-0.3,3-1.8,3l-8.4,0c-0.7,0-1.4-0.4-1.7-1 l-0.8-1.3c0,0-5.1-6-8.2-7.9c-3.2-1.8-3.1,0.8-3.1,0.8v5.3c0,2.2-1.8,4-4,4h-2c0,0-11,0-19.8-13.1C5.1,26.7,2.8,20.1,2,16.3 C1.8,15.1,2.7,13.9,4,13.9z"/></symbol></svg>