<svg width="191" height="156" viewBox="0 0 191 156" xmlns="http://www.w3.org/2000/svg">
    <path d="M172.89 77.917L172.708 78.051C172.708 78.034 172.708 78.018 172.708 78C172.708 34.922 137.952 0 94.875 0C51.824 0 17.006 34.877 16.96 77.917L0 77.958C0 77.958 7.271 79.56 11.435 83.722C15.35 87.64 18.922 95.139 18.922 95.139L18.909 94.963C26.655 129.879 57.789 156 95.04 156C132.292 156 163.428 129.875 171.171 94.953L171.151 95.139C171.151 95.139 174.865 87.64 178.779 83.722C182.945 79.56 190.112 77.958 190.112 77.958L172.89 77.917Z" fill="white" />
</svg>