<svg width="76" height="56" viewBox="0 0 76 56" fill="none" xmlns="http://www.w3.org/2000/svg">
<path d="M26.7109 45.5234C28.2148 43.3815 29.3542 41.0117 30.1289 38.4141C30.9036 35.8164 31.291 33.1276 31.291 30.3477C31.291 29.4362 31.2454 28.5475 31.1543 27.6816C31.1087 26.8158 30.9948 25.9499 30.8125 25.084C30.1745 21.8939 29.263 19.1139 28.0781 16.7441C26.9388 14.3288 25.7311 12.3236 24.4551 10.7285C23.179 9.08789 21.9714 7.85742 20.832 7.03711C19.6927 6.17122 18.8496 5.69271 18.3027 5.60156C18.1204 6.10286 17.8242 6.46745 17.4141 6.69531C17.0951 6.8776 16.776 6.96875 16.457 6.96875C16.1836 6.96875 15.9102 6.92318 15.6367 6.83203C15.3633 6.74089 15.0443 6.62695 14.6797 6.49023C14.4974 6.58138 14.224 6.62695 13.8594 6.62695C13.2214 6.62695 12.7428 6.39909 12.4238 5.94336C11.6491 6.44466 10.9199 7.19661 10.2363 8.19922C9.37044 9.38411 8.5957 10.8424 7.91211 12.5742C7.22852 14.2604 6.63607 16.1061 6.13477 18.1113C5.67904 20.071 5.31445 22.099 5.04102 24.1953C4.76758 26.2917 4.63086 28.3424 4.63086 30.3477C4.63086 31.487 4.65365 32.5807 4.69922 33.6289C4.79036 34.6771 4.94987 35.6797 5.17773 36.6367C5.63346 39.1888 6.4082 41.3307 7.50195 43.0625C8.5957 44.7943 9.80339 46.207 11.125 47.3008C12.4922 48.349 13.9049 49.1009 15.3633 49.5566C16.8672 50.0124 18.2572 50.2402 19.5332 50.2402C19.8066 50.2402 20.0573 50.2402 20.2852 50.2402C20.5586 50.2402 20.832 50.1947 21.1055 50.1035C21.7435 50.0124 22.5638 49.625 23.5664 48.9414C24.569 48.2122 25.6172 47.0729 26.7109 45.5234ZM17.9609 1.70508C19.1003 1.70508 20.4674 2.20638 22.0625 3.20898C23.6576 4.21159 25.2526 5.69271 26.8477 7.65234C28.4883 9.56641 30.015 11.9362 31.4277 14.7617C32.8405 17.5417 33.8887 20.7318 34.5723 24.332C34.9368 26.4284 35.1191 28.4336 35.1191 30.3477C35.1191 33.4922 34.6634 36.5684 33.752 39.5762C32.8861 42.5384 31.5872 45.25 29.8555 47.7109C28.625 49.4427 27.2806 50.8555 25.8223 51.9492C24.4095 53.043 23.0195 53.7038 21.6523 53.9316C21.2878 54.0228 20.9004 54.0684 20.4902 54.0684C20.1257 54.0684 19.7383 54.0684 19.3281 54.0684C17.4596 54.0684 15.5684 53.7266 13.6543 53.043C11.7402 52.3594 9.96289 51.334 8.32227 49.9668C6.68164 48.554 5.24609 46.8223 4.01562 44.7715C2.83073 42.6751 1.96484 40.2142 1.41797 37.3887C1.00781 35.2923 0.802734 32.9681 0.802734 30.416C0.802734 28.2285 0.939453 25.9727 1.21289 23.6484C1.5319 21.3242 1.96484 19.0911 2.51172 16.9492C3.05859 14.7617 3.7194 12.7337 4.49414 10.8652C5.26888 8.99674 6.13477 7.37891 7.0918 6.01172C8.77799 3.55078 10.7148 2.13802 12.9023 1.77344C13.0391 1.72786 13.1758 1.70508 13.3125 1.70508C13.4948 1.70508 13.6543 1.70508 13.791 1.70508C14.5658 1.70508 15.2266 1.8418 15.7734 2.11523C16.0469 2.02409 16.3203 1.95573 16.5938 1.91016C16.8672 1.86458 17.1634 1.81901 17.4824 1.77344L17.9609 1.70508ZM74.0156 51.6758C75.0182 51.9036 75.5195 52.6784 75.5195 54C75.4284 54.4557 75.1777 54.8203 74.7676 55.0938C74.3574 55.3672 73.8333 55.4811 73.1953 55.4355C72.2839 55.2988 71.2357 55.1393 70.0508 54.957C69.0482 54.8203 67.8177 54.6836 66.3594 54.5469C64.9466 54.4557 63.3743 54.3874 61.6426 54.3418H60.6855C58.9538 54.3418 57.1992 54.3874 55.4219 54.4785C53.6445 54.6152 52.0267 54.752 50.5684 54.8887C49.1556 55.0254 47.9707 55.1393 47.0137 55.2305C46.0566 55.3672 45.5326 55.4355 45.4414 55.4355C45.3047 55.4355 45.1452 55.4128 44.9629 55.3672C44.8262 55.3672 44.5299 55.3672 44.0742 55.3672C43.5273 55.3672 43.0716 55.1621 42.707 54.752C42.3424 54.3874 42.1602 53.9544 42.1602 53.4531C42.2057 49.625 42.7298 46.3893 43.7324 43.7461C44.7806 41.1029 46.3984 38.6875 48.5859 36.5C49.9076 35.1784 51.3659 33.9935 52.9609 32.9453C54.556 31.8516 56.151 30.7806 57.7461 29.7324C59.1589 28.8665 60.526 28.0007 61.8477 27.1348C63.1693 26.2233 64.3314 25.2891 65.334 24.332C66.3366 23.375 67.1341 22.3724 67.7266 21.3242C68.3646 20.2305 68.6836 19.0684 68.6836 17.8379C68.6836 16.4707 68.6152 15.1947 68.4785 14.0098C68.3418 12.7793 68.0228 11.64 67.5215 10.5918C67.0202 9.54362 66.2682 8.60938 65.2656 7.78906C64.263 6.96875 62.873 6.23958 61.0957 5.60156C60.0931 5.23698 59.2044 4.98633 58.4297 4.84961C57.7005 4.66732 56.9941 4.57617 56.3105 4.57617C55.3535 4.57617 54.3509 4.71289 53.3027 4.98633C52.2546 5.25977 50.9329 5.64714 49.3379 6.14844C48.1986 6.51302 47.2415 7.08268 46.4668 7.85742C45.6921 8.58659 45.054 9.33854 44.5527 10.1133C43.9603 11.0247 43.459 12.0046 43.0488 13.0527C42.7298 13.9642 41.9323 14.3971 40.6562 14.3516C40.2461 14.2148 39.9043 13.9642 39.6309 13.5996C39.403 13.1895 39.3346 12.6426 39.4258 11.959C39.4258 11.8678 39.5853 11.4121 39.9043 10.5918C40.2233 9.77148 40.7246 8.86003 41.4082 7.85742C42.1374 6.80924 43.0716 5.78385 44.2109 4.78125C45.3503 3.73307 46.7402 2.95833 48.3809 2.45703C49.9759 1.95573 51.3887 1.56836 52.6191 1.29492C53.8496 0.975911 55.0801 0.816406 56.3105 0.816406C57.1764 0.816406 58.0879 0.907552 59.0449 1.08984C60.0475 1.27214 61.1641 1.56836 62.3945 1.97852C64.901 2.8444 66.8379 3.96094 68.2051 5.32812C69.6178 6.64974 70.6204 8.03971 71.2129 9.49805C71.8509 10.9564 72.2155 12.4375 72.3066 13.9414C72.4434 15.3997 72.5117 16.6986 72.5117 17.8379C72.5117 19.6152 72.1471 21.2103 71.418 22.623C70.6888 24.0358 69.709 25.3574 68.4785 26.5879C67.2936 27.7728 65.9264 28.8893 64.377 29.9375C62.873 30.9401 61.3464 31.9427 59.7969 32.9453C58.293 33.9479 56.7891 34.9505 55.2852 35.9531C53.7812 36.9557 52.4368 38.0495 51.252 39.2344C49.6113 40.8294 48.3809 42.584 47.5605 44.498C46.7402 46.4121 46.2389 48.7363 46.0566 51.4707C46.6491 51.4251 47.4694 51.3568 48.5176 51.2656C49.5658 51.1289 50.7507 51.015 52.0723 50.9238C53.3939 50.7871 54.7839 50.696 56.2422 50.6504C57.7461 50.5592 59.25 50.5137 60.7539 50.5137H61.7109C65.4479 50.6048 68.4102 50.8327 70.5977 51.1973C72.7852 51.5163 73.9245 51.6758 74.0156 51.6758Z" fill="#5ACFA3"/>
</svg>
