<svg width="705" height="572" viewBox="0 0 705 572" fill="none" xmlns="http://www.w3.org/2000/svg">
<path fill-rule="evenodd" clip-rule="evenodd" d="M634.388 562.719C630.839 568.299 624.602 572 617.5 572C606.454 572 597.5 563.046 597.5 552C597.5 547.186 599.201 542.77 602.034 539.318C641.255 487.153 664.5 422.291 664.5 352C664.5 179.687 524.813 40 352.5 40C180.187 40 40.5 179.687 40.5 352C40.5 422.291 63.7444 487.153 102.966 539.318C103.306 539.733 103.631 540.162 103.937 540.603C103.944 540.612 103.95 540.62 103.957 540.629L103.956 540.63C106.191 543.858 107.5 547.776 107.5 552C107.5 563.046 98.5457 572 87.5 572C80.9593 572 75.1519 568.86 71.5028 564.006L71.4888 564.016C26.9278 505.046 0.5 431.609 0.5 352C0.5 157.596 158.096 0 352.5 0C546.904 0 704.5 157.596 704.5 352C704.5 431.048 678.444 504.01 634.452 562.766L634.388 562.719Z" fill="#EAF3F5"/>
<path fill-rule="evenodd" clip-rule="evenodd" d="M352.5 0C413.338 0 470.572 15.4342 520.498 42.6008L520.466 42.6561C526.463 46.1093 530.5 52.5832 530.5 60C530.5 71.0457 521.546 80 510.5 80C506.528 80 502.826 78.842 499.714 76.8451C455.862 53.3342 405.738 40 352.5 40C180.187 40 40.5 179.687 40.5 352C40.5 422.291 63.7444 487.153 102.966 539.318C103.306 539.733 103.631 540.162 103.937 540.603C103.944 540.612 103.95 540.62 103.957 540.629L103.956 540.63C106.191 543.858 107.5 547.776 107.5 552C107.5 563.046 98.5457 572 87.5 572C80.9593 572 75.1519 568.86 71.5028 564.006L71.4888 564.016C26.9278 505.046 0.5 431.609 0.5 352C0.5 157.596 158.096 0 352.5 0Z" fill="url(#paint0_linear_12_9)"/>
<path fill-rule="evenodd" clip-rule="evenodd" d="M622.472 353.944L624.472 353.973C624.49 352.651 624.5 351.326 624.5 350C624.5 348.674 624.49 347.349 624.472 346.027L622.472 346.056L620.472 346.085C620.491 347.388 620.5 348.693 620.5 350C620.5 351.307 620.491 352.612 620.472 353.915L622.472 353.944ZM622.247 338.209L624.245 338.124C624.132 335.478 623.98 332.842 623.792 330.217L621.797 330.36L619.802 330.503C619.988 333.091 620.137 335.688 620.249 338.295L622.247 338.209ZM621.122 322.55L623.112 322.349C622.846 319.713 622.542 317.088 622.201 314.474L620.218 314.733L618.235 314.992C618.57 317.567 618.87 320.153 619.132 322.751L621.122 322.55ZM619.09 306.968L621.065 306.652C620.646 304.04 620.191 301.44 619.699 298.853L617.734 299.227L615.769 299.601C616.254 302.15 616.703 304.711 617.115 307.284L619.09 306.968ZM616.153 291.534L618.106 291.103C617.537 288.524 616.931 285.958 616.289 283.407L614.349 283.895L612.41 284.383C613.042 286.897 613.639 289.424 614.2 291.965L616.153 291.534ZM612.32 276.302L614.244 275.757C613.525 273.217 612.77 270.692 611.98 268.183L610.072 268.784L608.164 269.385C608.943 271.857 609.687 274.344 610.395 276.847L612.32 276.302ZM607.601 261.323L609.49 260.666C608.623 258.172 607.721 255.694 606.783 253.233L604.914 253.944L603.045 254.656C603.968 257.081 604.857 259.522 605.712 261.98L607.601 261.323ZM602.013 246.648L603.86 245.882C602.849 243.441 601.802 241.019 600.722 238.615L598.897 239.435L597.073 240.255C598.138 242.623 599.169 245.01 600.166 247.414L602.013 246.648ZM595.576 232.323L597.375 231.45C596.222 229.074 595.036 226.716 593.817 224.379L592.043 225.304L590.27 226.229C591.471 228.532 592.64 230.854 593.776 233.196L595.576 232.323ZM588.31 218.394L590.056 217.418C588.767 215.114 587.446 212.832 586.093 210.57L584.377 211.597L582.661 212.623C583.994 214.852 585.295 217.101 586.565 219.371L588.31 218.394ZM580.246 204.914L581.932 203.838C580.513 201.614 579.061 199.412 577.579 197.233L575.926 198.358L574.272 199.482C575.732 201.63 577.162 203.799 578.561 205.99L580.246 204.914ZM571.414 191.926L573.034 190.754C571.488 188.616 569.911 186.501 568.305 184.411L566.719 185.629L565.133 186.848C566.716 188.908 568.27 190.991 569.793 193.098L571.414 191.926ZM561.843 179.471L563.393 178.207C561.726 176.163 560.029 174.143 558.304 172.148L556.791 173.456L555.278 174.765C556.978 176.73 558.65 178.721 560.293 180.736L561.843 179.471ZM551.567 167.591L553.042 166.239C551.259 164.295 549.448 162.376 547.61 160.485L546.176 161.878L544.741 163.272C546.552 165.136 548.336 167.026 550.093 168.943L551.567 167.591ZM540.622 156.324L542.015 154.89C540.124 153.052 538.205 151.241 536.261 149.458L534.909 150.933L533.557 152.407C535.473 154.163 537.364 155.948 539.228 157.759L540.622 156.324ZM529.044 145.709L530.352 144.196C528.357 142.471 526.337 140.774 524.293 139.107L523.029 140.657L521.764 142.207C523.779 143.85 525.77 145.522 527.735 147.222L529.044 145.709ZM516.871 135.781L518.089 134.195C515.999 132.589 513.884 131.012 511.746 129.466L510.574 131.086L509.402 132.707C511.509 134.23 513.592 135.784 515.652 137.367L516.871 135.781ZM504.142 126.574L505.267 124.921C503.088 123.439 500.886 121.987 498.662 120.568L497.586 122.253L496.51 123.939C498.701 125.338 500.87 126.768 503.018 128.228L504.142 126.574ZM490.903 118.123L491.93 116.407C489.668 115.054 487.385 113.733 485.082 112.444L484.106 114.19L483.129 115.935C485.399 117.205 487.648 118.506 489.877 119.839L490.903 118.123ZM477.196 110.457L478.121 108.683C475.784 107.464 473.426 106.278 471.05 105.125L470.177 106.925L469.304 108.724C471.646 109.86 473.968 111.029 476.271 112.23L477.196 110.457ZM463.065 103.603L463.885 101.778C461.481 100.698 459.059 99.6515 456.618 98.6395L455.852 100.487L455.086 102.334C457.49 103.331 459.877 104.362 462.245 105.427L463.065 103.603ZM448.556 97.5857L449.267 95.7166C446.806 94.7795 444.328 93.8771 441.834 93.0101L441.177 94.8992L440.52 96.7884C442.978 97.6426 445.419 98.5316 447.844 99.4547L448.556 97.5857ZM433.716 92.428L434.317 90.5204C431.808 89.73 429.283 88.975 426.743 88.256L426.198 90.1804L425.653 92.1047C428.156 92.8131 430.643 93.5569 433.115 94.3356L433.716 92.428ZM418.605 88.1505L419.093 86.211C416.542 85.569 413.976 84.9631 411.397 84.3937L410.966 86.3467L410.535 88.2997C413.076 88.8606 415.603 89.4576 418.117 90.0901L418.605 88.1505ZM403.273 84.766L403.647 82.8013C401.06 82.3091 398.46 81.8536 395.848 81.4353L395.532 83.4101L395.216 85.385C397.789 85.7971 400.35 86.2459 402.899 86.7308L403.273 84.766ZM387.767 82.2822L388.026 80.299C385.412 79.9581 382.787 79.6543 380.151 79.3881L379.95 81.378L379.749 83.3679C382.347 83.6302 384.933 83.9295 387.508 84.2654L387.767 82.2822ZM372.14 80.7033L372.283 78.7085C369.658 78.5197 367.022 78.3683 364.376 78.2546L364.29 80.2528L364.205 82.2509C366.812 82.3629 369.409 82.5122 371.997 82.6982L372.14 80.7033ZM356.444 80.0282L356.473 78.0284C355.151 78.0095 353.826 78 352.5 78C351.174 78 349.849 78.0095 348.527 78.0284L348.556 80.0282L348.585 82.028C349.888 82.0094 351.193 82 352.5 82C353.807 82 355.112 82.0094 356.415 82.028L356.444 80.0282ZM340.709 80.2528L340.624 78.2546C337.978 78.3683 335.342 78.5197 332.717 78.7085L332.86 80.7033L333.003 82.6982C335.591 82.5122 338.188 82.3629 340.795 82.2509L340.709 80.2528ZM325.05 81.378L324.849 79.3882C322.213 79.6543 319.588 79.9581 316.974 80.299L317.233 82.2822L317.492 84.2654C320.067 83.9295 322.653 83.6302 325.251 83.3679L325.05 81.378ZM309.468 83.4102L309.152 81.4353C306.54 81.8536 303.94 82.3092 301.353 82.8013L301.727 84.766L302.101 86.7308C304.65 86.2459 307.211 85.7971 309.784 85.385L309.468 83.4102ZM294.034 86.3467L293.603 84.3937C291.024 84.9631 288.458 85.569 285.907 86.211L286.395 88.1505L286.883 90.0901C289.397 89.4576 291.924 88.8606 294.465 88.2997L294.034 86.3467ZM278.802 90.1804L278.257 88.256C275.717 88.975 273.192 89.73 270.683 90.5204L271.284 92.428L271.885 94.3356C274.357 93.5569 276.844 92.8131 279.347 92.1047L278.802 90.1804ZM263.823 94.8992L263.166 93.0101C260.672 93.8771 258.194 94.7795 255.733 95.7166L256.444 97.5857L257.156 99.4547C259.581 98.5316 262.022 97.6426 264.48 96.7884L263.823 94.8992ZM249.148 100.487L248.382 98.6395C245.941 99.6515 243.519 100.698 241.115 101.778L241.935 103.603L242.755 105.427C245.123 104.362 247.51 103.331 249.914 102.334L249.148 100.487ZM234.823 106.925L233.95 105.125C231.574 106.278 229.216 107.464 226.879 108.683L227.804 110.457L228.729 112.23C231.032 111.029 233.354 109.86 235.696 108.724L234.823 106.925ZM220.894 114.19L219.918 112.444C217.614 113.733 215.332 115.054 213.07 116.407L214.097 118.123L215.123 119.839C217.352 118.506 219.601 117.205 221.871 115.935L220.894 114.19ZM207.414 122.253L206.338 120.568C204.114 121.987 201.912 123.439 199.733 124.921L200.858 126.574L201.982 128.228C204.13 126.768 206.299 125.338 208.49 123.939L207.414 122.253ZM194.426 131.086L193.254 129.466C191.116 131.012 189.001 132.589 186.911 134.195L188.129 135.781L189.348 137.367C191.408 135.784 193.491 134.23 195.598 132.707L194.426 131.086ZM181.971 140.657L180.707 139.107C178.663 140.774 176.643 142.471 174.648 144.196L175.956 145.709L177.265 147.222C179.23 145.522 181.221 143.85 183.236 142.207L181.971 140.657ZM170.091 150.933L168.739 149.458C166.795 151.241 164.876 153.052 162.985 154.89L164.378 156.324L165.772 157.759C167.636 155.948 169.526 154.163 171.443 152.407L170.091 150.933ZM158.824 161.878L157.39 160.485C155.552 162.376 153.741 164.295 151.958 166.239L153.433 167.591L154.907 168.943C156.663 167.027 158.448 165.136 160.259 163.272L158.824 161.878ZM148.209 173.456L146.696 172.148C144.971 174.143 143.274 176.163 141.607 178.207L143.157 179.471L144.707 180.736C146.35 178.721 148.022 176.73 149.722 174.765L148.209 173.456ZM138.281 185.629L136.695 184.411C135.089 186.501 133.512 188.616 131.966 190.754L133.586 191.926L135.207 193.098C136.73 190.991 138.284 188.908 139.867 186.848L138.281 185.629ZM129.074 198.358L127.421 197.233C125.939 199.412 124.487 201.614 123.068 203.838L124.753 204.914L126.439 205.99C127.838 203.799 129.268 201.63 130.728 199.482L129.074 198.358ZM120.623 211.597L118.907 210.57C117.554 212.832 116.233 215.114 114.944 217.418L116.69 218.394L118.435 219.371C119.705 217.101 121.006 214.852 122.339 212.623L120.623 211.597ZM112.957 225.304L111.183 224.379C109.964 226.716 108.778 229.074 107.625 231.45L109.425 232.323L111.224 233.196C112.36 230.854 113.529 228.532 114.73 226.229L112.957 225.304ZM106.103 239.435L104.278 238.615C103.198 241.019 102.151 243.441 101.14 245.882L102.987 246.648L104.834 247.414C105.831 245.01 106.862 242.623 107.927 240.255L106.103 239.435ZM100.086 253.944L98.2166 253.233C97.2795 255.694 96.3771 258.172 95.5101 260.666L97.3992 261.323L99.2884 261.98C100.143 259.522 101.032 257.081 101.955 254.656L100.086 253.944ZM94.928 268.784L93.0204 268.183C92.23 270.692 91.475 273.217 90.756 275.757L92.6804 276.302L94.6047 276.847C95.3131 274.344 96.0569 271.857 96.8356 269.385L94.928 268.784ZM90.6505 283.895L88.711 283.407C88.069 285.958 87.4631 288.524 86.8937 291.103L88.8467 291.534L90.7997 291.965C91.3606 289.424 91.9576 286.897 92.5901 284.383L90.6505 283.895ZM87.266 299.227L85.3013 298.853C84.8091 301.44 84.3536 304.04 83.9353 306.652L85.9101 306.968L87.885 307.284C88.2971 304.711 88.7459 302.15 89.2308 299.601L87.266 299.227ZM84.7822 314.733L82.799 314.474C82.4581 317.088 82.1543 319.713 81.8881 322.349L83.878 322.55L85.8679 322.751C86.1302 320.153 86.4295 317.567 86.7654 314.992L84.7822 314.733ZM83.2033 330.36L81.2085 330.217C81.0197 332.842 80.8683 335.478 80.7546 338.124L82.7528 338.21L84.7509 338.295C84.8629 335.688 85.0122 333.091 85.1982 330.503L83.2033 330.36ZM80.5 350C80.5 348.674 80.5095 347.349 80.5284 346.027L82.5282 346.056L84.528 346.085C84.5094 347.388 84.5 348.693 84.5 350C84.5 351.307 84.5094 352.612 84.528 353.915L82.5282 353.944L80.5284 353.973C80.5095 352.651 80.5 351.326 80.5 350ZM82.7528 361.791L80.7546 361.876C80.8683 364.522 81.0197 367.158 81.2085 369.783L83.2033 369.64L85.1982 369.497C85.0122 366.909 84.8629 364.312 84.7509 361.705L82.7528 361.791ZM83.878 377.45L81.8882 377.651C82.1543 380.287 82.4581 382.912 82.799 385.526L84.7822 385.267L86.7654 385.008C86.4295 382.433 86.1302 379.847 85.8679 377.249L83.878 377.45ZM85.9102 393.032L83.9353 393.348C84.3536 395.96 84.8092 398.56 85.3013 401.147L87.266 400.773L89.2308 400.399C88.7459 397.85 88.2971 395.289 87.885 392.716L85.9102 393.032ZM88.8467 408.466L86.8937 408.897C87.4631 411.476 88.069 414.042 88.711 416.593L90.6505 416.105L92.5901 415.617C91.9576 413.103 91.3606 410.576 90.7997 408.035L88.8467 408.466ZM92.6804 423.698L90.756 424.243C91.475 426.783 92.23 429.308 93.0204 431.817L94.928 431.216L96.8356 430.615C96.0569 428.143 95.3131 425.656 94.6047 423.153L92.6804 423.698ZM97.3992 438.677L95.5101 439.334C96.3771 441.828 97.2795 444.306 98.2166 446.767L100.086 446.056L101.955 445.344C101.032 442.919 100.143 440.478 99.2884 438.02L97.3992 438.677ZM102.987 453.352L101.14 454.118C102.151 456.559 103.198 458.981 104.278 461.385L106.103 460.565L107.927 459.745C106.862 457.377 105.831 454.99 104.834 452.586L102.987 453.352ZM109.425 467.677L107.625 468.55C108.778 470.927 109.964 473.284 111.183 475.621L112.957 474.696L114.73 473.771C113.529 471.468 112.36 469.146 111.224 466.804L109.425 467.677ZM116.69 481.606L114.944 482.582C116.233 484.885 117.554 487.168 118.907 489.43L120.623 488.403L122.339 487.377C121.006 485.148 119.705 482.899 118.435 480.629L116.69 481.606ZM124.753 495.086L123.068 496.162C124.487 498.386 125.939 500.588 127.421 502.767L129.074 501.642L130.728 500.518C129.268 498.37 127.838 496.201 126.439 494.01L124.753 495.086ZM133.586 508.074L131.966 509.246C133.512 511.384 135.089 513.499 136.695 515.589L138.281 514.371L139.867 513.152C138.284 511.092 136.73 509.009 135.207 506.902L133.586 508.074ZM143.157 520.529L141.607 521.793C143.274 523.837 144.971 525.857 146.696 527.852L148.209 526.544L149.722 525.235C148.022 523.27 146.35 521.279 144.707 519.264L143.157 520.529ZM556.791 526.544L558.304 527.852C560.029 525.857 561.726 523.837 563.393 521.793L561.843 520.529L560.293 519.264C558.65 521.279 556.978 523.27 555.278 525.235L556.791 526.544ZM566.719 514.371L568.305 515.589C569.911 513.499 571.488 511.384 573.034 509.246L571.414 508.074L569.793 506.902C568.27 509.009 566.716 511.092 565.133 513.152L566.719 514.371ZM575.926 501.642L577.579 502.767C579.061 500.588 580.513 498.386 581.932 496.162L580.246 495.086L578.561 494.01C577.162 496.201 575.732 498.37 574.272 500.518L575.926 501.642ZM584.377 488.403L586.093 489.43C587.446 487.168 588.767 484.886 590.056 482.582L588.31 481.606L586.565 480.629C585.295 482.899 583.994 485.148 582.661 487.377L584.377 488.403ZM592.043 474.696L593.817 475.621C595.036 473.284 596.222 470.926 597.375 468.55L595.576 467.677L593.776 466.804C592.64 469.146 591.471 471.468 590.27 473.771L592.043 474.696ZM598.897 460.565L600.722 461.385C601.802 458.981 602.849 456.559 603.86 454.118L602.013 453.352L600.166 452.586C599.169 454.99 598.138 457.377 597.073 459.745L598.897 460.565ZM604.914 446.056L606.783 446.767C607.721 444.306 608.623 441.828 609.49 439.334L607.601 438.677L605.712 438.02C604.857 440.478 603.968 442.919 603.045 445.344L604.914 446.056ZM610.072 431.216L611.98 431.817C612.77 429.308 613.525 426.783 614.244 424.243L612.32 423.698L610.395 423.153C609.687 425.656 608.943 428.143 608.164 430.615L610.072 431.216ZM614.349 416.105L616.289 416.593C616.931 414.042 617.537 411.476 618.106 408.897L616.153 408.466L614.2 408.035C613.639 410.576 613.042 413.103 612.41 415.617L614.349 416.105ZM617.734 400.773L619.699 401.147C620.191 398.56 620.646 395.96 621.065 393.348L619.09 393.032L617.115 392.716C616.703 395.289 616.254 397.85 615.769 400.399L617.734 400.773ZM620.218 385.267L622.201 385.526C622.542 382.912 622.846 380.287 623.112 377.651L621.122 377.45L619.132 377.249C618.87 379.847 618.57 382.433 618.235 385.008L620.218 385.267ZM621.797 369.64L623.792 369.783C623.98 367.158 624.132 364.522 624.245 361.876L622.247 361.79L620.249 361.705C620.137 364.312 619.988 366.909 619.802 369.497L621.797 369.64Z" fill="#B1E5E6"/>
<rect x="419.609" y="241" width="6" height="192.296" rx="3" transform="rotate(30 419.609 241)" fill="url(#paint1_linear_12_9)"/>
<circle cx="352.481" cy="365.254" r="30" transform="rotate(30 352.481 365.254)" fill="url(#paint2_linear_12_9)"/>
<circle cx="352.48" cy="365.254" r="22" transform="rotate(30 352.48 365.254)" fill="white"/>
<defs>
<linearGradient id="paint0_linear_12_9" x1="73" y1="572" x2="530.5" y2="49" gradientUnits="userSpaceOnUse">
<stop stop-color="#67E1D2"/>
<stop offset="1" stop-color="#59A3F0"/>
</linearGradient>
<linearGradient id="paint1_linear_12_9" x1="422.609" y1="241" x2="422.609" y2="433.295" gradientUnits="userSpaceOnUse">
<stop stop-color="#5BA7F0"/>
<stop offset="1" stop-color="#67E0D4"/>
</linearGradient>
<linearGradient id="paint2_linear_12_9" x1="352.481" y1="335.254" x2="352.481" y2="395.254" gradientUnits="userSpaceOnUse">
<stop stop-color="#5AA5F0"/>
<stop offset="1" stop-color="#67E1D2"/>
</linearGradient>
</defs>
</svg>
